<svg width="15" height="17" viewBox="0 0 15 17" fill="none" xmlns="http://www.w3.org/2000/svg">
<path d="M12.5 0C13.163 0 13.7989 0.26866 14.2678 0.746878C14.7366 1.2251 15 1.8737 15 2.55V14.45C15 15.1263 14.7366 15.7749 14.2678 16.2531C13.7989 16.7313 13.163 17 12.5 17H2.5C1.83696 17 1.20107 16.7313 0.732233 16.2531C0.263392 15.7749 0 15.1263 0 14.45V2.55C0 1.8737 0.263392 1.2251 0.732233 0.746878C1.20107 0.26866 1.83696 0 2.5 0H12.5ZM4.16667 12.75C3.94565 12.75 3.73369 12.8396 3.57741 12.999C3.42113 13.1584 3.33333 13.3746 3.33333 13.6L3.33917 13.708C3.36425 13.9231 3.46893 14.1203 3.63181 14.2594C3.79468 14.3984 4.00347 14.4688 4.2155 14.4561C4.42754 14.4434 4.62682 14.3486 4.77263 14.1911C4.91843 14.0335 4.99976 13.8251 5 13.6085L4.99417 13.5006C4.97029 13.2938 4.87284 13.1032 4.72031 12.9648C4.56778 12.8265 4.37078 12.75 4.16667 12.75ZM7.5 12.75C7.27899 12.75 7.06702 12.8396 6.91074 12.999C6.75446 13.1584 6.66667 13.3746 6.66667 13.6L6.6725 13.708C6.69759 13.9231 6.80226 14.1203 6.96514 14.2594C7.12802 14.3984 7.3368 14.4688 7.54884 14.4561C7.76087 14.4434 7.96015 14.3486 8.10596 14.1911C8.25177 14.0335 8.3331 13.8251 8.33333 13.6085L8.3275 13.5006C8.30362 13.2938 8.20617 13.1032 8.05364 12.9648C7.90111 12.8265 7.70411 12.75 7.5 12.75ZM10.8333 12.75C10.6123 12.75 10.4004 12.8396 10.2441 12.999C10.0878 13.1584 10 13.3746 10 13.6L10.0058 13.708C10.0309 13.9231 10.1356 14.1203 10.2985 14.2594C10.4614 14.3984 10.6701 14.4688 10.8822 14.4561C11.0942 14.4434 11.2935 14.3486 11.4393 14.1911C11.5851 14.0335 11.6664 13.8251 11.6667 13.6085L11.6608 13.5006C11.637 13.2938 11.5395 13.1032 11.387 12.9648C11.2344 12.8265 11.0374 12.75 10.8333 12.75ZM4.16667 9.35C3.94565 9.35 3.73369 9.43955 3.57741 9.59896C3.42113 9.75837 3.33333 9.97457 3.33333 10.2L3.33917 10.308C3.36425 10.5231 3.46893 10.7203 3.63181 10.8594C3.79468 10.9984 4.00347 11.0688 4.2155 11.0561C4.42754 11.0434 4.62682 10.9486 4.77263 10.7911C4.91843 10.6335 4.99976 10.4251 5 10.2085L4.99417 10.1006C4.97029 9.89379 4.87284 9.70315 4.72031 9.56481C4.56778 9.42646 4.37078 9.35003 4.16667 9.35ZM7.5 9.35C7.27899 9.35 7.06702 9.43955 6.91074 9.59896C6.75446 9.75837 6.66667 9.97457 6.66667 10.2L6.6725 10.308C6.69759 10.5231 6.80226 10.7203 6.96514 10.8594C7.12802 10.9984 7.3368 11.0688 7.54884 11.0561C7.76087 11.0434 7.96015 10.9486 8.10596 10.7911C8.25177 10.6335 8.3331 10.4251 8.33333 10.2085L8.3275 10.1006C8.30362 9.89379 8.20617 9.70315 8.05364 9.56481C7.90111 9.42646 7.70411 9.35003 7.5 9.35ZM10.8333 9.35C10.6123 9.35 10.4004 9.43955 10.2441 9.59896C10.0878 9.75837 10 9.97457 10 10.2L10.0058 10.308C10.0309 10.5231 10.1356 10.7203 10.2985 10.8594C10.4614 10.9984 10.6701 11.0688 10.8822 11.0561C11.0942 11.0434 11.2935 10.9486 11.4393 10.7911C11.5851 10.6335 11.6664 10.4251 11.6667 10.2085L11.6608 10.1006C11.637 9.89379 11.5395 9.70315 11.387 9.56481C11.2344 9.42646 11.0374 9.35003 10.8333 9.35ZM10 3.4H5C4.55797 3.4 4.13405 3.57911 3.82149 3.89792C3.50893 4.21673 3.33333 4.64913 3.33333 5.1V5.95C3.33333 6.40087 3.50893 6.83327 3.82149 7.15208C4.13405 7.47089 4.55797 7.65 5 7.65H10C10.442 7.65 10.8659 7.47089 11.1785 7.15208C11.4911 6.83327 11.6667 6.40087 11.6667 5.95V5.1C11.6667 4.64913 11.4911 4.21673 11.1785 3.89792C10.8659 3.57911 10.442 3.4 10 3.4Z" fill="#6F96D1"/>
</svg>
