<svg width="18" height="17" viewBox="0 0 18 17" fill="none" xmlns="http://www.w3.org/2000/svg">
<path d="M14.4 0C15.3548 0 16.2705 0.377075 16.9456 1.04827C17.6207 1.71947 18 2.62981 18 3.57903V10.7371C18 11.6863 17.6207 12.5967 16.9456 13.2679C16.2705 13.9391 15.3548 14.3161 14.4 14.3161H10.1484L5.8626 16.8724C5.73353 16.9495 5.58709 16.993 5.4367 16.9992C5.2863 17.0054 5.13674 16.974 5.00171 16.9079C4.86668 16.8417 4.7505 16.743 4.66379 16.6206C4.57709 16.4983 4.52263 16.3563 4.5054 16.2076L4.5 16.1056V14.3161H3.6C2.67638 14.3161 1.78809 13.9632 1.11887 13.3304C0.449644 12.6975 0.050681 11.8331 0.0045001 10.916L0 10.7371V3.57903C0 2.62981 0.379285 1.71947 1.05442 1.04827C1.72955 0.377075 2.64522 0 3.6 0H14.4ZM10.8 8.05282H5.4C5.1613 8.05282 4.93239 8.14709 4.7636 8.31489C4.59482 8.48269 4.5 8.71027 4.5 8.94758C4.5 9.18488 4.59482 9.41247 4.7636 9.58027C4.93239 9.74807 5.1613 9.84234 5.4 9.84234H10.8C11.0387 9.84234 11.2676 9.74807 11.4364 9.58027C11.6052 9.41247 11.7 9.18488 11.7 8.94758C11.7 8.71027 11.6052 8.48269 11.4364 8.31489C11.2676 8.14709 11.0387 8.05282 10.8 8.05282ZM12.6 4.47379H5.4C5.1613 4.47379 4.93239 4.56806 4.7636 4.73586C4.59482 4.90366 4.5 5.13124 4.5 5.36855C4.5 5.60585 4.59482 5.83344 4.7636 6.00124C4.93239 6.16904 5.1613 6.26331 5.4 6.26331H12.6C12.8387 6.26331 13.0676 6.16904 13.2364 6.00124C13.4052 5.83344 13.5 5.60585 13.5 5.36855C13.5 5.13124 13.4052 4.90366 13.2364 4.73586C13.0676 4.56806 12.8387 4.47379 12.6 4.47379Z" fill="#6F96D1"/>
</svg>
