<svg width="15" height="15" viewBox="0 0 15 15" fill="none" xmlns="http://www.w3.org/2000/svg">
<path d="M13.75 0H1.25C0.918479 0 0.600537 0.131696 0.366116 0.366116C0.131696 0.600537 0 0.918479 0 1.25V13.75C0 14.0815 0.131696 14.3995 0.366116 14.6339C0.600537 14.8683 0.918479 15 1.25 15H13.75C14.0815 15 14.3995 14.8683 14.6339 14.6339C14.8683 14.3995 15 14.0815 15 13.75V1.25C15 0.918479 14.8683 0.600537 14.6339 0.366116C14.3995 0.131696 14.0815 0 13.75 0ZM12.5 11.875H2.5C2.33424 11.875 2.17527 11.8092 2.05806 11.6919C1.94085 11.5747 1.875 11.4158 1.875 11.25C1.875 11.0842 1.94085 10.9253 2.05806 10.8081C2.17527 10.6908 2.33424 10.625 2.5 10.625H12.5C12.6658 10.625 12.8247 10.6908 12.9419 10.8081C13.0592 10.9253 13.125 11.0842 13.125 11.25C13.125 11.4158 13.0592 11.5747 12.9419 11.6919C12.8247 11.8092 12.6658 11.875 12.5 11.875ZM12.5 8.125H2.5C2.33424 8.125 2.17527 8.05915 2.05806 7.94194C1.94085 7.82473 1.875 7.66576 1.875 7.5C1.875 7.33424 1.94085 7.17527 2.05806 7.05806C2.17527 6.94085 2.33424 6.875 2.5 6.875H12.5C12.6658 6.875 12.8247 6.94085 12.9419 7.05806C13.0592 7.17527 13.125 7.33424 13.125 7.5C13.125 7.66576 13.0592 7.82473 12.9419 7.94194C12.8247 8.05915 12.6658 8.125 12.5 8.125ZM12.5 4.375H2.5C2.33424 4.375 2.17527 4.30915 2.05806 4.19194C1.94085 4.07473 1.875 3.91576 1.875 3.75C1.875 3.58424 1.94085 3.42527 2.05806 3.30806C2.17527 3.19085 2.33424 3.125 2.5 3.125H12.5C12.6658 3.125 12.8247 3.19085 12.9419 3.30806C13.0592 3.42527 13.125 3.58424 13.125 3.75C13.125 3.91576 13.0592 4.07473 12.9419 4.19194C12.8247 4.30915 12.6658 4.375 12.5 4.375Z" fill="#6F96D1"/>
</svg>
