<svg width="18" height="18" viewBox="0 0 18 18" fill="none" xmlns="http://www.w3.org/2000/svg">
<path d="M12.1084 12.6377C12.2674 12.5141 12.412 12.3695 12.7001 12.0813L16.2971 8.48333C16.3843 8.39697 16.3443 8.24698 16.2289 8.20607C15.6656 8.01082 15.1544 7.68931 14.7345 7.26611C14.3113 6.84616 13.9898 6.33496 13.7946 5.77164C13.7537 5.65619 13.6037 5.61619 13.5173 5.70346L9.91857 9.30057C9.63041 9.58873 9.48588 9.73327 9.36225 9.89236C9.21499 10.0808 9.09016 10.2826 8.98774 10.4978C8.90139 10.6796 8.83685 10.8741 8.70777 11.2614L8.54051 11.7614L8.27508 12.5568L8.02692 13.3022C7.99598 13.3956 7.99162 13.4958 8.01432 13.5916C8.03702 13.6873 8.0859 13.7749 8.15549 13.8445C8.22507 13.9141 8.31264 13.963 8.4084 13.9857C8.50416 14.0084 8.60435 14.004 8.69777 13.9731L9.44316 13.7249L10.2385 13.4595L10.7385 13.2922C11.1257 13.1631 11.3203 13.0995 11.5021 13.0122C11.7172 12.9092 11.9199 12.7843 12.1084 12.6377ZM17.4242 7.35702C17.793 6.98815 18.0001 6.48789 18 5.96631C17.9999 5.44473 17.7926 4.94454 17.4238 4.57579C17.0549 4.20703 16.5547 3.99991 16.0331 4C15.5116 4.00009 15.0114 4.20736 14.6427 4.57624L14.5281 4.6926C14.4729 4.74667 14.4317 4.81349 14.4082 4.88719C14.3848 4.96089 14.3797 5.03922 14.3936 5.11531C14.4118 5.21257 14.4436 5.3562 14.5027 5.5262C14.6209 5.86709 14.8445 6.31434 15.2653 6.73523C15.6862 7.15612 16.1335 7.37975 16.4743 7.49792C16.6452 7.55701 16.7879 7.58883 16.8852 7.60701C16.9613 7.62009 17.0394 7.6147 17.1129 7.59128C17.1865 7.56787 17.2534 7.52712 17.3079 7.47247L17.4242 7.35702Z" fill="#6F96D1"/>
<path fill-rule="evenodd" clip-rule="evenodd" d="M1.04178 1.0548C-1.05964e-07 2.1087 0 3.8061 0 7.2V10.8C0 14.1939 -1.05964e-07 15.8913 1.04178 16.9452C2.08356 17.9991 3.75911 18 7.11111 18H8.88889C12.2409 18 13.9173 18 14.9582 16.9452C15.9831 15.9084 16 14.2488 16 10.962L13.4951 13.4982C13.2551 13.7412 13.0587 13.9401 12.8373 14.1156C12.5777 14.3215 12.2963 14.4975 11.9982 14.6403C11.7254 14.7646 11.4452 14.8713 11.1591 14.9598L9.104 15.6537C8.77776 15.7639 8.42767 15.7798 8.09296 15.6999C7.75826 15.6199 7.45216 15.4471 7.20899 15.2009C6.96581 14.9547 6.79517 14.6448 6.71618 14.3059C6.63719 13.967 6.65298 13.6125 6.76178 13.2822L7.00533 12.5442L7.42756 11.2608L7.44622 11.2014C7.55378 10.8756 7.64178 10.6092 7.76267 10.3518C7.90489 10.0494 8.07763 9.7665 8.28089 9.5031C8.45422 9.2781 8.65067 9.0801 8.89067 8.8371L12.4516 5.2308L13.44 4.23L13.5529 4.1157C13.8549 3.80894 14.2139 3.56569 14.6092 3.39996C15.0045 3.23422 15.4282 3.14927 15.856 3.15C15.7218 2.223 15.4613 1.5633 14.9582 1.0548C13.9173 -1.07288e-07 12.2409 0 8.88889 0H7.11111C3.75911 0 2.08267 -1.07288e-07 1.04178 1.0548ZM3.77778 6.3C3.77778 6.12098 3.84802 5.94929 3.97304 5.8227C4.09806 5.69612 4.26763 5.625 4.44444 5.625H10.2222C10.399 5.625 10.5686 5.69612 10.6936 5.8227C10.8187 5.94929 10.8889 6.12098 10.8889 6.3C10.8889 6.47902 10.8187 6.65071 10.6936 6.7773C10.5686 6.90388 10.399 6.975 10.2222 6.975H4.44444C4.26763 6.975 4.09806 6.90388 3.97304 6.7773C3.84802 6.65071 3.77778 6.47902 3.77778 6.3ZM3.77778 9.9C3.77778 9.72098 3.84802 9.54929 3.97304 9.4227C4.09806 9.29612 4.26763 9.225 4.44444 9.225H6.66667C6.84348 9.225 7.01305 9.29612 7.13807 9.4227C7.2631 9.54929 7.33333 9.72098 7.33333 9.9C7.33333 10.079 7.2631 10.2507 7.13807 10.3773C7.01305 10.5039 6.84348 10.575 6.66667 10.575H4.44444C4.26763 10.575 4.09806 10.5039 3.97304 10.3773C3.84802 10.2507 3.77778 10.079 3.77778 9.9ZM3.77778 13.5C3.77778 13.321 3.84802 13.1493 3.97304 13.0227C4.09806 12.8961 4.26763 12.825 4.44444 12.825H5.77778C5.95459 12.825 6.12416 12.8961 6.24918 13.0227C6.37421 13.1493 6.44444 13.321 6.44444 13.5C6.44444 13.679 6.37421 13.8507 6.24918 13.9773C6.12416 14.1039 5.95459 14.175 5.77778 14.175H4.44444C4.26763 14.175 4.09806 14.1039 3.97304 13.9773C3.84802 13.8507 3.77778 13.679 3.77778 13.5Z" fill="#6F96D1"/>
</svg>
