<svg width="19" height="18" viewBox="0 0 19 18" fill="none" xmlns="http://www.w3.org/2000/svg">
<path d="M10.5556 12.7059C10.5556 12.9867 10.4443 13.256 10.2464 13.4546C10.0484 13.6532 9.77995 13.7647 9.5 13.7647C9.22005 13.7647 8.95156 13.6532 8.75361 13.4546C8.55565 13.256 8.44444 12.9867 8.44444 12.7059C8.44444 12.4251 8.55565 12.1558 8.75361 11.9572C8.95156 11.7586 9.22005 11.6471 9.5 11.6471C9.77995 11.6471 10.0484 11.7586 10.2464 11.9572C10.4443 12.1558 10.5556 12.4251 10.5556 12.7059Z" fill="#6F96D1"/>
<path d="M11.6235 0L14.5006 3.75858L16.3979 3.15548L18.1296 7.87816H19V18H0V7.87816H0.461429V7.86973L1.04771 7.87479L11.6235 0ZM7.14491 7.87816H16.2179L15.2796 5.31987L13.9026 5.73065L7.14491 7.87816ZM5.73529 6.54292L12.7119 4.32709L11.2607 2.42924L5.73529 6.54292ZM3.61905 9.56514H1.80952V11.2521C2.28944 11.2521 2.7497 11.0744 3.08905 10.758C3.4284 10.4416 3.61905 10.0125 3.61905 9.56514ZM12.6667 12.9391C12.6667 12.5514 12.5848 12.1675 12.4256 11.8093C12.2665 11.4511 12.0332 11.1257 11.7392 10.8516C11.4451 10.5774 11.096 10.36 10.7118 10.2116C10.3276 10.0632 9.91585 9.98688 9.5 9.98688C9.08415 9.98688 8.67237 10.0632 8.28817 10.2116C7.90397 10.36 7.55488 10.5774 7.26083 10.8516C6.96678 11.1257 6.73352 11.4511 6.57438 11.8093C6.41524 12.1675 6.33333 12.5514 6.33333 12.9391C6.33333 13.7221 6.66696 14.473 7.26083 15.0266C7.85469 15.5802 8.66015 15.8913 9.5 15.8913C10.3399 15.8913 11.1453 15.5802 11.7392 15.0266C12.333 14.473 12.6667 13.7221 12.6667 12.9391ZM17.1905 16.313V14.6261C16.7106 14.6261 16.2503 14.8038 15.911 15.1202C15.5716 15.4365 15.381 15.8656 15.381 16.313H17.1905ZM15.381 9.56514C15.381 10.0125 15.5716 10.4416 15.911 10.758C16.2503 11.0744 16.7106 11.2521 17.1905 11.2521V9.56514H15.381ZM1.80952 16.313H3.61905C3.61905 15.8656 3.4284 15.4365 3.08905 15.1202C2.7497 14.8038 2.28944 14.6261 1.80952 14.6261V16.313Z" fill="#6F96D1"/>
</svg>
