<svg width="19" height="19" viewBox="0 0 19 19" fill="none" xmlns="http://www.w3.org/2000/svg">
<path d="M9.45249 15.2C9.78499 15.2 10.0662 15.085 10.2961 14.8551C10.526 14.6252 10.6406 14.3444 10.64 14.0125C10.6394 13.6806 10.5247 13.3994 10.2961 13.1689C10.0675 12.9384 9.78626 12.8237 9.45249 12.825C9.11873 12.8263 8.83784 12.9412 8.60985 13.1698C8.38185 13.3985 8.2669 13.6794 8.265 14.0125C8.2631 14.3456 8.37805 14.6268 8.60985 14.8561C8.84165 15.0854 9.12253 15.2 9.45249 15.2ZM8.5975 11.5425H10.355C10.355 11.02 10.4145 10.6083 10.5336 10.3075C10.6527 10.0067 10.989 9.59499 11.5425 9.07249C11.9542 8.66083 12.2787 8.26879 12.5162 7.89639C12.7537 7.524 12.8725 7.07686 12.8725 6.555C12.8725 5.66833 12.5479 4.9875 11.8987 4.5125C11.2496 4.0375 10.4817 3.8 9.595 3.8C8.6925 3.8 7.96036 4.0375 7.3986 4.5125C6.83683 4.9875 6.4448 5.5575 6.2225 6.2225L7.79 6.84C7.86916 6.555 8.04745 6.24625 8.32485 5.91375C8.60225 5.58125 9.02563 5.415 9.595 5.415C10.1017 5.415 10.4817 5.5537 10.735 5.8311C10.9883 6.1085 11.115 6.41313 11.115 6.745C11.115 7.06166 11.02 7.3587 10.83 7.6361C10.64 7.91349 10.4025 8.17063 10.1175 8.40749C9.42083 9.02499 8.99333 9.49208 8.835 9.80874C8.67666 10.1254 8.5975 10.7033 8.5975 11.5425ZM9.5 19C8.18583 19 6.95083 18.7508 5.795 18.2523C4.63917 17.7539 3.63375 17.0769 2.77875 16.2212C1.92375 15.3656 1.24703 14.3602 0.748601 13.205C0.250168 12.0498 0.000634535 10.8148 1.20253e-06 9.49999C-0.00063213 8.18519 0.248901 6.9502 0.748601 5.795C1.2483 4.6398 1.92502 3.63438 2.77875 2.77875C3.63248 1.92312 4.6379 1.2464 5.795 0.748604C6.9521 0.250805 8.1871 0.00127146 9.5 4.79797e-06C10.8129 -0.00126187 12.0479 0.248271 13.205 0.748604C14.3621 1.24894 15.3675 1.92565 16.2212 2.77875C17.075 3.63185 17.752 4.63727 18.2523 5.795C18.7527 6.95273 19.0019 8.18773 19 9.49999C18.9981 10.8123 18.7486 12.0473 18.2514 13.205C17.7542 14.3627 17.0775 15.3681 16.2212 16.2212C15.365 17.0743 14.3596 17.7514 13.205 18.2523C12.0504 18.7533 10.8154 19.0025 9.5 19Z" fill="#6F96D1"/>
</svg>
