<svg width="17" height="18" viewBox="0 0 17 18" fill="none" xmlns="http://www.w3.org/2000/svg">
<path fill-rule="evenodd" clip-rule="evenodd" d="M9.0695 0.131097L16.2945 4.06114C16.5066 4.16421 16.685 4.32279 16.8096 4.51907C16.9342 4.71535 17.0002 4.94157 17 5.17231V6.36374C17 6.93463 16.524 7.39796 15.9375 7.39796H15.3V14.017H16.15C16.3754 14.017 16.5916 14.1042 16.751 14.2593C16.9104 14.4145 17 14.6249 17 14.8444C17 15.0638 16.9104 15.2742 16.751 15.4294C16.5916 15.5846 16.3754 15.6717 16.15 15.6717H0.85C0.624566 15.6717 0.408365 15.5846 0.248959 15.4294C0.0895533 15.2742 0 15.0638 0 14.8444C0 14.6249 0.0895533 14.4145 0.248959 14.2593C0.408365 14.1042 0.624566 14.017 0.85 14.017H1.7V7.39796H1.0625C0.476 7.39796 0 6.93463 0 6.36374V5.17231C0 4.74042 0.2295 4.34328 0.6001 4.11823L7.92965 0.131097C8.10673 0.0448845 8.302 0 8.5 0C8.698 0 8.89242 0.0448845 9.0695 0.131097ZM12.75 7.39796H4.25V14.017H5.95V9.05272H7.65V14.017H9.35V9.05272H11.05V14.017H12.75V7.39796ZM8.5 3.26107C8.27457 3.26107 8.05837 3.34824 7.89896 3.5034C7.73955 3.65857 7.65 3.86901 7.65 4.08845C7.65 4.30788 7.73955 4.51833 7.89896 4.67349C8.05837 4.82866 8.27457 4.91583 8.5 4.91583C8.72543 4.91583 8.94164 4.82866 9.10104 4.67349C9.26045 4.51833 9.35 4.30788 9.35 4.08845C9.35 3.86901 9.26045 3.65857 9.10104 3.5034C8.94164 3.34824 8.72543 3.26107 8.5 3.26107Z" fill="#6F96D1"/>
</svg>
