<svg width="45" height="42" viewBox="0 0 45 42" fill="none" xmlns="http://www.w3.org/2000/svg">
<path d="M3.46416 13.6924H41.5358M2.31286 14.8077L21.3258 39.4219C21.464 39.6017 21.6418 39.7474 21.8454 39.8476C22.049 39.9479 22.273 40 22.5 40C22.727 40 22.951 39.9479 23.1546 39.8476C23.3582 39.7474 23.536 39.6017 23.6742 39.4219L42.6871 14.8077C42.8741 14.5648 42.9825 14.2708 42.9981 13.9648C43.0136 13.6589 42.9355 13.3555 42.7741 13.095L36.3248 2.70428C36.192 2.48925 36.0064 2.31167 35.7855 2.1884C35.5646 2.06514 35.3158 2.00028 35.0627 2H9.93726C9.6842 2.00028 9.43541 2.06514 9.21452 2.1884C8.99364 2.31167 8.80799 2.48925 8.67522 2.70428L2.22592 13.095C2.06453 13.3555 1.98641 13.6589 2.00194 13.9648C2.01747 14.2708 2.12591 14.5648 2.31286 14.8077Z" stroke="#2E4396" stroke-width="3" stroke-linecap="round" stroke-linejoin="round"/>
<path d="M35.6787 3.46154L31.2858 13.6924M31.2858 13.6924L22.5001 2L13.7143 13.6924M31.2858 13.6924L22.5001 38.5386L13.7143 13.6924M9.32141 3.46154L13.7143 13.6924" stroke="#2E4396" stroke-width="3" stroke-linecap="round" stroke-linejoin="round"/>
</svg>
