<svg width="25" height="25" viewBox="0 0 25 25" fill="none" xmlns="http://www.w3.org/2000/svg">
<path d="M8.33333 24.2917V18.5417L4.04167 21.7083C5.25 22.8333 6.70833 23.7083 8.33333 24.2917ZM16.6667 24.2917C18.2917 23.7083 19.75 22.8333 20.9583 21.7083L16.6667 18.5V24.2917ZM0.708333 16.6667C0.833333 17.0833 1 17.4583 1.20833 17.875L2.83333 16.6667H0.708333ZM22.1667 16.6667L23.7917 17.875C23.9583 17.5 24.125 17.0833 24.2917 16.6667H22.1667Z" fill="#2A5F9E"/>
<path d="M0.25 15C0.375 15.5833 0.541667 16.125 0.708333 16.6667H2.83333L1.20833 17.875C1.54167 18.5833 1.91667 19.2083 2.375 19.8333L6.66667 16.6667H8.33333V17.5L3.45833 21.0833L4.04167 21.6667L8.33333 18.5417V24.2917C8.875 24.5 9.41667 24.625 10 24.75V15H0.25ZM24.75 15H15V24.75C15.5833 24.625 16.125 24.4583 16.6667 24.2917V18.5417L20.9583 21.6667C21.5417 21.125 22.0417 20.5417 22.5417 19.9167L18.0833 16.6667H20.9167L23.4583 18.5417C23.5833 18.3333 23.7083 18.0833 23.7917 17.875L22.1667 16.6667H24.2917C24.4583 16.125 24.625 15.5833 24.75 15Z" fill="white"/>
<path d="M2.375 19.8333C2.70833 20.2917 3.04167 20.7083 3.41667 21.125L8.33333 17.5417V16.7083H6.66667L2.375 19.8333ZM18.125 16.6667L22.5833 19.9167C22.75 19.7083 22.875 19.5 23.0417 19.2917C23.0833 19.25 23.0833 19.2083 23.125 19.2083C23.25 19 23.4167 18.75 23.5417 18.5417L20.9167 16.6667H18.125Z" fill="#ED4C5C"/>
<path d="M16.6667 0.708333V6.45833L20.9583 3.29167C19.75 2.16667 18.2917 1.29167 16.6667 0.708333ZM8.33333 0.708333C6.70833 1.29167 5.25 2.16667 4.04167 3.29167L8.33333 6.5V0.708333ZM24.2917 8.33333C24.1667 7.91667 24 7.54167 23.7917 7.125L22.1667 8.33333H24.2917ZM2.83333 8.33333L1.20833 7.125C1.04167 7.54167 0.875 7.91667 0.708333 8.33333H2.83333Z" fill="#2A5F9E"/>
<path d="M24.7083 10C24.5833 9.41667 24.4167 8.875 24.25 8.33333H22.125L23.75 7.125C23.4167 6.41667 23.0417 5.79167 22.5833 5.16667L18.3333 8.33333H16.6667V7.5L21.5417 3.91667L20.9583 3.33333L16.6667 6.45833V0.708333C16.125 0.5 15.5833 0.375 15 0.25V10H24.7083ZM0.25 10H10V0.25C9.41667 0.375 8.875 0.541667 8.33333 0.708333V6.45833L4.04167 3.33333C3.45833 3.875 2.95833 4.45833 2.45833 5.08333L6.91667 8.33333H4.08333L1.54167 6.45833C1.41667 6.66667 1.29167 6.91667 1.20833 7.125L2.83333 8.33333H0.708333C0.541667 8.875 0.375 9.41667 0.25 10Z" fill="white"/>
<path d="M22.625 5.16667C22.2917 4.70833 21.9583 4.29167 21.5833 3.875L16.6667 7.45833V8.29167H18.3333L22.625 5.16667ZM6.875 8.33333L2.45833 5.08333C2.29167 5.29167 2.16667 5.5 2 5.70833C1.95833 5.75 1.95833 5.79167 1.91667 5.79167C1.79167 6 1.625 6.25 1.5 6.45833L4.04167 8.33333H6.875Z" fill="#ED4C5C"/>
<path d="M24.75 10H15V0.25C14.2083 0.0833333 13.375 0 12.5 0C11.1875 0 10.7917 0.0833333 10 0.25V10H0.25C0.0833333 10.7917 0 11.625 0 12.5C0 13.8125 0.0833333 14.2083 0.25 15H10V24.75C10.7917 24.9167 11.625 25 12.5 25C13.8125 25 14.2083 24.9167 15 24.75V15H24.75C24.9167 14.2083 25 13.375 25 12.5C25 11.1875 24.9167 10.7917 24.75 10Z" fill="#ED4C5C"/>
</svg>
