<svg width="14" height="18" viewBox="0 0 14 18" fill="none" xmlns="http://www.w3.org/2000/svg">
<path fill-rule="evenodd" clip-rule="evenodd" d="M9.03226 0.230769C9.03226 0.169565 9.00847 0.110868 8.96612 0.0675908C8.92377 0.0243132 8.86634 0 8.80645 0H2.48387C1.82511 0 1.19332 0.267444 0.727509 0.743498C0.261693 1.21955 0 1.86522 0 2.53846V15.4615C0 16.1348 0.261693 16.7804 0.727509 17.2565C1.19332 17.7326 1.82511 18 2.48387 18H11.5161C12.1749 18 12.8067 17.7326 13.2725 17.2565C13.7383 16.7804 14 16.1348 14 15.4615V6.36646C14 6.30526 13.9762 6.24656 13.9339 6.20328C13.8915 6.16001 13.8341 6.13569 13.7742 6.13569H9.70968C9.53001 6.13569 9.35771 6.06275 9.23067 5.93292C9.10363 5.80309 9.03226 5.627 9.03226 5.44338V0.230769ZM9.70968 9.23077C9.88934 9.23077 10.0616 9.30371 10.1887 9.43354C10.3157 9.56337 10.3871 9.73947 10.3871 9.92308C10.3871 10.1067 10.3157 10.2828 10.1887 10.4126C10.0616 10.5424 9.88934 10.6154 9.70968 10.6154H4.29032C4.11066 10.6154 3.93836 10.5424 3.81131 10.4126C3.68427 10.2828 3.6129 10.1067 3.6129 9.92308C3.6129 9.73947 3.68427 9.56337 3.81131 9.43354C3.93836 9.30371 4.11066 9.23077 4.29032 9.23077H9.70968ZM9.70968 12.9231C9.88934 12.9231 10.0616 12.996 10.1887 13.1258C10.3157 13.2557 10.3871 13.4318 10.3871 13.6154C10.3871 13.799 10.3157 13.9751 10.1887 14.1049C10.0616 14.2348 9.88934 14.3077 9.70968 14.3077H4.29032C4.11066 14.3077 3.93836 14.2348 3.81131 14.1049C3.68427 13.9751 3.6129 13.799 3.6129 13.6154C3.6129 13.4318 3.68427 13.2557 3.81131 13.1258C3.93836 12.996 4.11066 12.9231 4.29032 12.9231H9.70968Z" fill="#6F96D1"/>
<path d="M11 0.24109C11 0.0496095 11.1566 -0.0721469 11.2726 0.0475283C11.371 0.149512 11.4584 0.268147 11.5346 0.403432L13.9789 4.77106C14.0341 4.87096 13.9741 5 13.8783 5H11.2028C11.149 5 11.0974 4.97259 11.0594 4.9238C11.0214 4.87501 11 4.80884 11 4.73984V0.24109Z" fill="#6F96D1"/>
</svg>
