<svg width="171" height="46" viewBox="0 0 171 46" fill="none" xmlns="http://www.w3.org/2000/svg">
    <g clip-path="url(#clip0_108_760)">
        <mask id="mask0_108_760" style="mask-type:luminance" maskUnits="userSpaceOnUse" x="0" y="0"
            width="171" height="46">
            <path d="M170.679 0.668457H0V45.332H170.679V0.668457Z" fill="white" />
        </mask>
        <g mask="url(#mask0_108_760)">
            <path
                d="M30.3481 0.842598L30.2465 0.668457L21.3543 0.672085L0 37.6516L4.43703 45.3247L47.1638 45.332L51.5899 37.6516L30.3481 0.842598ZM4.64019 44.2799L4.17218 43.4708L21.5647 13.3444L31.1644 29.9749H30.2139L21.5575 14.977L4.64019 44.2799ZM29.4121 29.9749H22.1888L25.8022 23.7203L29.4121 29.9749ZM35.5434 29.9749L21.6663 5.93985L21.5466 5.72943L1.96274 39.6506L1.44031 38.7509L21.5393 3.94085L36.5737 29.9785L35.5434 29.9749ZM21.5466 6.28813L35.2241 29.9749H34.1938L21.5539 8.08396L2.6448 40.8297L2.12237 39.93L21.5466 6.28813ZM21.5539 8.64266L33.8709 29.9785H32.8405L21.5575 10.4384L3.32686 42.0124L2.80443 41.1127L21.5539 8.64266ZM21.5575 10.9935L32.5176 29.9749H31.4873L21.5647 12.7857L4.00892 43.1915L3.48649 42.2881L21.5575 10.9935ZM22.7293 18.4018L8.73619 42.64H47.9112L47.3924 43.5434H7.18341L22.2141 17.5129L22.7293 18.4018ZM9.21871 42.3607L22.889 18.6811L23.4041 19.5736L10.7679 41.461H48.5896L48.0708 42.3643L9.21871 42.3607ZM11.254 41.178L23.5674 19.8493L24.0826 20.7418L12.8032 40.2746H49.2717L48.7529 41.178H11.254ZM13.2857 39.9989L24.2422 21.0248L24.7574 21.9172L14.8385 39.0992H49.9537L49.4349 40.0025H13.2857V39.9989ZM15.321 38.8162L24.9206 22.193L25.3995 23.0238L16.7504 37.9999H50.585L50.1134 38.8162H15.321ZM21.5575 1.72055L37.8689 29.9785H36.8966L21.6627 3.58894L21.543 3.37852L1.28068 38.4715L0.805413 37.6516L21.5575 1.72055ZM46.7611 44.6318L5.24607 44.6281L21.5611 16.3738L22.0581 17.2336L6.82787 43.6123L6.70814 43.8227H47.2364L46.7611 44.6318Z"
                fill="#C0D5E5" />
            <path d="M21.5575 16.3736L4.43703 45.3245L0 37.6515L21.3543 0.671875L21.5575 16.3736Z"
                fill="#6F96D1" />
            <path d="M29.4122 29.9747L21.5576 16.3736L21.3545 0.671875L37.8691 29.9747H29.4122Z"
                fill="#6F96D1" />
            <path d="M25.7986 23.7201L21.5575 16.3735L4.43701 45.3245H13.2857L25.7986 23.7201Z"
                fill="#2E4396" />
            <path
                d="M47.1639 45.3322L12.3716 45.325L16.6707 38.0001L51.5901 37.6519L47.1639 45.3322Z"
                fill="#2E4396" />
            <path
                d="M64.6871 20.2591H66.472V7.60482H71.729V6.52732H59.4301V7.60482H64.6871V20.2591ZM73.9638 10.2351C74.918 10.2351 75.6581 10.3693 76.1805 10.6378C76.703 10.9062 77.0875 11.2545 77.327 11.6862C77.57 12.118 77.7079 12.615 77.7478 13.1773C77.7877 13.7397 77.8059 14.3165 77.8059 14.9042V20.2591H76.2168V19.2977C75.8359 19.6641 75.3533 19.9543 74.7656 20.172C74.1779 20.386 73.5901 20.4949 72.9988 20.4949C72.4364 20.4949 71.9394 20.3969 71.5077 20.201C71.076 20.0051 70.7168 19.7512 70.4302 19.4355C70.1436 19.1199 69.9259 18.768 69.7844 18.3762C69.6393 17.9843 69.5703 17.5853 69.5703 17.1789C69.5703 16.7617 69.6502 16.3409 69.8062 15.9237C69.9622 15.5065 70.198 15.1292 70.5136 14.7954C70.8292 14.4616 71.2138 14.1895 71.6709 13.9827C72.1281 13.7723 72.6505 13.6671 73.2419 13.6671C73.8296 13.6671 74.3883 13.7832 74.918 14.0118C75.4477 14.2403 75.883 14.5632 76.2241 14.984V14.1387C76.2241 13.0649 76.0644 12.2667 75.7452 11.7443C75.4259 11.2219 74.8382 10.9607 73.9892 10.9607C73.6228 10.9607 73.3035 11.0078 73.0278 11.0985C72.7521 11.1892 72.509 11.3162 72.2913 11.4795C72.0773 11.6427 71.8777 11.8459 71.6927 12.0889C71.5113 12.332 71.3263 12.6005 71.1449 12.9016L70.1254 11.8822C70.3068 11.6862 70.5027 11.4903 70.7059 11.2944C70.9091 11.0985 71.1558 10.9208 71.4496 10.7648C71.7435 10.6087 72.0954 10.4818 72.4981 10.3838C72.9008 10.2859 73.3906 10.2351 73.9638 10.2351ZM76.2204 17.8864V16.3772C76.1551 16.2212 76.0608 16.0361 75.9375 15.8294C75.8141 15.6189 75.6545 15.4158 75.4586 15.2199C75.2626 15.0239 75.0268 14.8571 74.7511 14.7192C74.4754 14.5813 74.1489 14.5124 73.7715 14.5124C73.3906 14.5124 73.0459 14.5886 72.7303 14.7373C72.4147 14.8861 72.1498 15.0856 71.9358 15.3251C71.7217 15.5681 71.5548 15.8511 71.4351 16.1776C71.319 16.5041 71.2573 16.8452 71.2573 17.1971C71.2573 17.6143 71.3335 17.9771 71.4823 18.2855C71.631 18.5938 71.8269 18.8551 72.0628 19.0691C72.2986 19.2831 72.5598 19.4464 72.8464 19.548C73.133 19.6532 73.4087 19.704 73.67 19.704C73.9167 19.704 74.1706 19.6568 74.4246 19.5661C74.6785 19.4754 74.9216 19.3485 75.1502 19.1852C75.3787 19.0219 75.5855 18.8297 75.7669 18.6047C75.952 18.3907 76.1043 18.1476 76.2204 17.8864ZM83.2442 10.4527H81.5753V20.2591H83.2442V10.4527ZM81.3432 7.35086C81.3432 7.63747 81.4484 7.8878 81.6588 8.09459C81.8692 8.30138 82.1159 8.41022 82.4025 8.41022C82.6891 8.41022 82.9395 8.30501 83.1463 8.09459C83.3531 7.88417 83.4619 7.63747 83.4619 7.35086C83.4619 7.06425 83.3567 6.81393 83.1463 6.60713C82.9358 6.39671 82.6891 6.2915 82.4025 6.2915C82.1159 6.2915 81.8656 6.39671 81.6588 6.60713C81.4447 6.81393 81.3432 7.06425 81.3432 7.35086ZM89.0526 20.2591V6.52732H87.3837V20.2591H89.0526ZM102.157 15.3759C102.157 16.0543 102.041 16.7073 101.805 17.3277C101.569 17.9481 101.232 18.4959 100.796 18.9675C100.357 19.4391 99.8277 19.8128 99.2073 20.0849C98.587 20.3606 97.8904 20.4985 97.1176 20.4985C96.334 20.4985 95.6229 20.357 94.988 20.0777C94.3531 19.7947 93.8162 19.421 93.3808 18.9494C92.9418 18.4777 92.6044 17.9336 92.3613 17.3096C92.1183 16.6892 91.9985 16.0434 91.9985 15.3759C91.9985 14.6974 92.1183 14.0444 92.3613 13.424C92.6044 12.8037 92.9418 12.2558 93.3808 11.7842C93.8198 11.3126 94.3567 10.9389 94.988 10.6559C95.6229 10.3729 96.3303 10.2351 97.1176 10.2351C97.8904 10.2351 98.587 10.3766 99.2073 10.6559C99.8277 10.9389 100.357 11.3126 100.796 11.7842C101.235 12.2558 101.573 12.8 101.805 13.424C102.037 14.048 102.157 14.6938 102.157 15.3759ZM100.292 15.3759C100.292 14.4616 100.194 13.7179 99.9982 13.1483C99.8023 12.5787 99.5484 12.1397 99.2327 11.8241C98.9171 11.5085 98.5724 11.2981 98.1915 11.1856C97.8106 11.0731 97.4478 11.0187 97.0922 11.0187C96.7403 11.0187 96.3739 11.0731 95.9929 11.1856C95.612 11.2981 95.2637 11.5085 94.9445 11.8241C94.6252 12.1397 94.364 12.5787 94.1608 13.1483C93.9576 13.7179 93.8561 14.458 93.8561 15.3759C93.8561 16.2792 93.9576 17.0157 94.1608 17.5816C94.364 18.1512 94.6252 18.5902 94.9445 18.9058C95.2637 19.2215 95.6156 19.4319 95.9929 19.5444C96.3739 19.6568 96.7367 19.7112 97.0922 19.7112C97.4441 19.7112 97.8106 19.6568 98.1915 19.5444C98.5724 19.4319 98.9171 19.2215 99.2327 18.9058C99.5484 18.5902 99.8023 18.1512 99.9982 17.5816C100.194 17.0121 100.292 16.2792 100.292 15.3759ZM106.373 10.4527H104.704V20.2591H106.373V14.3346C106.373 13.7977 106.434 13.3442 106.558 12.9705C106.681 12.5969 106.841 12.2921 107.036 12.0599C107.232 11.8241 107.45 11.6536 107.682 11.5484C107.914 11.4432 108.147 11.3924 108.368 11.3924C108.669 11.3924 108.948 11.4903 109.202 11.6862C109.456 11.8822 109.645 12.0672 109.761 12.2341L110.429 11.0187C110.313 10.8627 110.171 10.7321 110.008 10.6269C109.844 10.5217 109.681 10.4419 109.518 10.3802C109.355 10.3221 109.202 10.2822 109.068 10.2641C108.93 10.246 108.829 10.2351 108.763 10.2351C108.216 10.2351 107.755 10.3838 107.392 10.6849C107.026 10.9861 106.724 11.4287 106.489 12.02H106.373V10.4527ZM111.807 14.2766H116.654V15.7495H111.807V14.2766ZM127.814 18.3181L121.516 6.52732H120.181V20.2591H121.044V9.05962H121.124L127.186 20.4985H127.538L133.738 9.13944H133.818V20.2591H135.603V6.52732H134.25L127.894 18.3181H127.814ZM143.135 10.2351C144.089 10.2351 144.829 10.3693 145.352 10.6378C145.874 10.9062 146.259 11.2545 146.498 11.6862C146.741 12.118 146.879 12.615 146.919 13.1773C146.959 13.7397 146.977 14.3165 146.977 14.9042V20.2591H145.388V19.2977C145.007 19.6641 144.524 19.9543 143.937 20.172C143.349 20.386 142.761 20.4949 142.17 20.4949C141.607 20.4949 141.11 20.3969 140.679 20.201C140.247 20.0051 139.888 19.7512 139.601 19.4355C139.315 19.1199 139.097 18.768 138.955 18.3762C138.814 17.9843 138.741 17.5853 138.741 17.1789C138.741 16.7617 138.821 16.3409 138.977 15.9237C139.133 15.5065 139.369 15.1292 139.685 14.7954C140 14.4616 140.385 14.1895 140.842 13.9827C141.299 13.7723 141.822 13.6671 142.413 13.6671C143.001 13.6671 143.559 13.7832 144.089 14.0118C144.619 14.2403 145.054 14.5632 145.395 14.984V14.1387C145.395 13.0649 145.235 12.2667 144.916 11.7443C144.597 11.2219 144.009 10.9607 143.16 10.9607C142.794 10.9607 142.475 11.0078 142.199 11.0985C141.923 11.1892 141.68 11.3162 141.462 11.4795C141.248 11.6427 141.049 11.8459 140.864 12.0889C140.682 12.332 140.497 12.6005 140.316 12.9016L139.296 11.8822C139.478 11.6862 139.674 11.4903 139.877 11.2944C140.08 11.0985 140.327 10.9208 140.621 10.7648C140.915 10.6087 141.266 10.4818 141.669 10.3838C142.068 10.2859 142.558 10.2351 143.135 10.2351ZM145.391 17.8864V16.3772C145.326 16.2212 145.232 16.0361 145.109 15.8294C144.985 15.6189 144.826 15.4158 144.63 15.2199C144.434 15.0239 144.198 14.8571 143.922 14.7192C143.646 14.5813 143.32 14.5124 142.943 14.5124C142.562 14.5124 142.217 14.5886 141.901 14.7373C141.586 14.8861 141.321 15.0856 141.107 15.3251C140.893 15.5681 140.726 15.8511 140.606 16.1776C140.49 16.5041 140.428 16.8452 140.428 17.1971C140.428 17.6143 140.505 17.9771 140.653 18.2855C140.802 18.5938 140.998 18.8551 141.234 19.0691C141.47 19.2831 141.731 19.4464 142.017 19.548C142.304 19.6496 142.58 19.704 142.841 19.704C143.088 19.704 143.342 19.6568 143.596 19.5661C143.85 19.4754 144.093 19.3485 144.321 19.1852C144.55 19.0219 144.757 18.8297 144.938 18.6047C145.123 18.3907 145.272 18.1476 145.391 17.8864ZM158.83 20.2591V6.52732H157.161V12.0599H157.081C156.95 11.7189 156.776 11.4359 156.562 11.2074C156.348 10.9788 156.101 10.7938 155.826 10.6487C155.55 10.5035 155.26 10.402 154.951 10.333C154.643 10.2677 154.334 10.2351 154.019 10.2351C153.366 10.2351 152.764 10.3548 152.216 10.5979C151.668 10.8409 151.193 11.182 150.794 11.6282C150.394 12.0744 150.082 12.6077 149.861 13.2354C149.64 13.863 149.527 14.5632 149.527 15.336C149.527 16.1196 149.64 16.8307 149.861 17.4656C150.082 18.1004 150.394 18.641 150.794 19.0945C151.193 19.5444 151.668 19.8926 152.216 20.1357C152.764 20.3788 153.366 20.4985 154.019 20.4985C155.561 20.4985 156.584 19.889 157.081 18.6737H157.161V20.2591H158.83ZM157.161 14.6285V16.3336C157.161 16.7654 157.088 17.1753 156.947 17.5599C156.805 17.9444 156.609 18.2782 156.366 18.5612C156.123 18.8442 155.836 19.0655 155.503 19.2287C155.169 19.392 154.813 19.4754 154.432 19.4754C154.015 19.4754 153.623 19.3992 153.257 19.2505C152.891 19.1018 152.571 18.8623 152.296 18.5358C152.02 18.2093 151.802 17.7848 151.639 17.2624C151.476 16.74 151.392 16.1123 151.392 15.3795C151.392 14.6358 151.476 14.0009 151.639 13.4748C151.802 12.9524 152.023 12.5243 152.306 12.1905C152.589 11.8568 152.912 11.6137 153.279 11.4649C153.645 11.3162 154.03 11.24 154.436 11.24C154.802 11.24 155.147 11.3162 155.477 11.4649C155.804 11.6137 156.09 11.8386 156.341 12.1325C156.587 12.4263 156.787 12.7819 156.939 13.2027C157.084 13.6163 157.161 14.0952 157.161 14.6285ZM163.223 15.7858H170.679V15.3722C170.679 14.4943 170.555 13.736 170.305 13.0975C170.058 12.4554 169.721 11.9257 169.296 11.5085C168.872 11.0913 168.378 10.7756 167.816 10.5652C167.254 10.3548 166.659 10.2496 166.031 10.2496C165.364 10.2496 164.75 10.3657 164.188 10.5942C163.626 10.8228 163.136 11.1566 162.715 11.5955C162.298 12.0345 161.971 12.5642 161.736 13.1846C161.5 13.805 161.384 14.5088 161.384 15.2924C161.384 15.9454 161.485 16.584 161.688 17.2043C161.892 17.8247 162.2 18.3798 162.61 18.8732C163.023 19.363 163.546 19.7548 164.181 20.0486C164.816 20.3425 165.563 20.4913 166.427 20.4913C167.265 20.4913 168.034 20.3425 168.741 20.0486C169.449 19.7548 170.062 19.3339 170.584 18.7825L169.957 18.1549C169.681 18.3907 169.423 18.6047 169.18 18.8006C168.937 18.9965 168.694 19.1598 168.444 19.2904C168.197 19.421 167.936 19.5226 167.667 19.5952C167.399 19.6677 167.101 19.704 166.775 19.704C166.408 19.704 166.02 19.6496 165.607 19.5371C165.193 19.4246 164.812 19.2251 164.46 18.9385C164.108 18.6519 163.814 18.2528 163.579 17.7413C163.343 17.2297 163.223 16.584 163.223 15.7858ZM168.97 15.0022H163.223C163.223 14.4798 163.277 13.9718 163.39 13.4821C163.502 12.9923 163.673 12.557 163.901 12.176C164.13 11.7951 164.42 11.494 164.776 11.2654C165.131 11.0368 165.549 10.9208 166.031 10.9208C166.96 10.9208 167.682 11.2835 168.197 12.0091C168.712 12.7383 168.97 13.7324 168.97 15.0022ZM60.7616 37.3866H59.4265C59.4519 37.9489 59.6006 38.4604 59.8691 38.9175C60.1376 39.3747 60.504 39.7629 60.9684 40.0857C61.4328 40.4086 61.977 40.6553 62.6046 40.8295C63.2322 41.0036 63.9179 41.0943 64.6653 41.0943C65.4236 41.0943 66.1056 41.0036 66.7151 40.8186C67.3246 40.6372 67.8434 40.3723 68.2751 40.035C68.7069 39.6939 69.0407 39.284 69.2765 38.7978C69.5123 38.3153 69.6284 37.7784 69.6284 37.1906C69.6284 36.378 69.4252 35.7177 69.0189 35.1989C68.6125 34.6837 68.1083 34.252 67.4988 33.9037C66.8893 33.5555 66.229 33.2652 65.5179 33.0294C64.8068 32.7936 64.1465 32.5469 63.537 32.2857C62.9275 32.0245 62.4232 31.7233 62.0169 31.3823C61.6105 31.0413 61.4074 30.5914 61.4074 30.0291C61.4074 29.7135 61.4763 29.4196 61.6142 29.1475C61.752 28.8718 61.9552 28.636 62.2237 28.4328C62.4921 28.2296 62.8223 28.0664 63.2141 27.943C63.6059 27.8197 64.0594 27.758 64.5673 27.758C65.4163 27.758 66.1383 27.9394 66.7333 28.2986C67.3282 28.6577 67.6765 29.2237 67.7817 29.9964H69.1168C69.037 29.5139 68.8629 29.0786 68.5872 28.6904C68.3114 28.3058 67.9668 27.9793 67.5459 27.7108C67.1251 27.4424 66.6534 27.2392 66.1238 27.1014C65.5941 26.9635 65.0426 26.8946 64.4658 26.8946C63.8635 26.8946 63.2903 26.9744 62.7497 27.1304C62.2055 27.2864 61.7303 27.5149 61.3167 27.8161C60.9031 28.1172 60.5766 28.4945 60.3371 28.9552C60.094 29.4124 59.9743 29.9348 59.9743 30.5261C59.9743 31.2989 60.1702 31.9193 60.5621 32.3909C60.9539 32.8625 61.4473 33.2543 62.0423 33.5663C62.6373 33.882 63.283 34.1468 63.976 34.3717C64.6689 34.593 65.3147 34.847 65.9097 35.1264C66.5047 35.4093 66.9981 35.7504 67.3899 36.1567C67.7817 36.563 67.9776 37.1036 67.9776 37.7856C67.9776 38.6346 67.6656 39.2586 67.0453 39.6504C66.4249 40.0422 65.5977 40.2381 64.5637 40.2381C63.7402 40.2381 63.0799 40.1293 62.5828 39.9152C62.0858 39.7012 61.7049 39.44 61.4437 39.1389C61.1824 38.8377 61.0047 38.5257 60.914 38.2065C60.8233 37.8872 60.7761 37.6079 60.7616 37.3866ZM82.105 35.9753C82.105 36.6537 81.9889 37.3067 81.7531 37.9271C81.5173 38.5475 81.1799 39.0953 80.7445 39.5669C80.3055 40.0386 79.7759 40.4123 79.1555 40.6844C78.5351 40.9601 77.8385 41.0979 77.0658 41.0979C76.2821 41.0979 75.571 40.9565 74.9361 40.6771C74.3012 40.3941 73.7643 40.0204 73.3289 39.5488C72.8899 39.0772 72.5525 38.533 72.3095 37.909C72.0664 37.2886 71.9467 36.6428 71.9467 35.9753C71.9467 35.2969 72.0664 34.6438 72.3095 34.0235C72.5525 33.4031 72.8899 32.8553 73.3289 32.3836C73.7679 31.912 74.3049 31.5383 74.9361 31.2553C75.571 30.9724 76.2785 30.8345 77.0658 30.8345C77.8385 30.8345 78.5351 30.976 79.1555 31.2553C79.7759 31.5383 80.3055 31.912 80.7445 32.3836C81.1835 32.8553 81.5209 33.3995 81.7531 34.0235C81.9889 34.6438 82.105 35.2932 82.105 35.9753ZM80.2439 35.9753C80.2439 35.0611 80.1459 34.3173 79.95 33.7477C79.7541 33.1782 79.5001 32.7392 79.1845 32.4235C78.8689 32.1079 78.5242 31.8975 78.1433 31.785C77.7623 31.6726 77.3995 31.6181 77.044 31.6181C76.6921 31.6181 76.3256 31.6726 75.9447 31.785C75.5638 31.8975 75.2155 32.1079 74.8962 32.4235C74.577 32.7392 74.3157 33.1782 74.1126 33.7477C73.9094 34.3173 73.8078 35.0574 73.8078 35.9753C73.8078 36.8786 73.9094 37.6151 74.1126 38.1811C74.3157 38.7507 74.577 39.1896 74.8962 39.5053C75.2155 39.8209 75.5674 40.0313 75.9447 40.1438C76.322 40.2563 76.6884 40.3107 77.044 40.3107C77.3959 40.3107 77.7623 40.2563 78.1433 40.1438C78.5242 40.0313 78.8689 39.8209 79.1845 39.5053C79.5001 39.1896 79.7541 38.7507 79.95 38.1811C80.1459 37.6115 80.2439 36.875 80.2439 35.9753ZM86.7162 40.8585V27.1267H85.0473V40.8585H86.7162ZM91.9151 31.0486H90.2462V37.4228C90.2462 37.6587 90.268 37.9815 90.3151 38.3951C90.3623 38.8087 90.4966 39.2114 90.7179 39.6105C90.9392 40.0096 91.2911 40.3542 91.7663 40.6517C92.2416 40.9492 92.9128 41.0943 93.7762 41.0943C94.1572 41.1088 94.5708 41.0326 95.0207 40.8694C95.4705 40.7061 95.9276 40.3941 96.3848 39.937L96.7004 39.6214H96.7802V40.8585H98.4491V31.0486H96.7802V37.129C96.7802 37.6405 96.7077 38.0759 96.5662 38.4423C96.421 38.8087 96.2324 39.1135 95.9966 39.3529C95.7608 39.596 95.485 39.7737 95.173 39.8935C94.8574 40.0096 94.5309 40.0712 94.1935 40.0712C93.6456 40.0712 93.2175 39.9624 92.9092 39.7483C92.6008 39.5343 92.3722 39.2803 92.2235 38.9937C92.0747 38.7071 91.984 38.4205 91.9586 38.1412C91.9332 37.8582 91.9187 37.655 91.9187 37.5244V31.0486H91.9151ZM102.371 31.8358H100.666V31.0522H102.371V28.0301H104.04V31.0522H106.412V31.8358H104.04V38.348C104.04 38.504 104.047 38.6854 104.058 38.8885C104.072 39.0917 104.109 39.2803 104.174 39.4581C104.239 39.6359 104.341 39.781 104.479 39.9007C104.617 40.0204 104.809 40.0785 105.059 40.0785C105.375 40.0785 105.636 39.9624 105.843 39.7266C106.053 39.4908 106.224 39.2368 106.354 38.9611L107.276 39.9043C106.634 40.5465 105.908 40.8657 105.099 40.8657C104.758 40.8657 104.424 40.8077 104.098 40.688C103.771 40.5719 103.481 40.3905 103.223 40.1474C102.966 39.9043 102.763 39.596 102.607 39.215C102.451 38.8341 102.371 38.3915 102.371 37.88V31.8358ZM111.296 31.0486H109.627V40.8585H111.296V31.0486ZM109.395 27.9503C109.395 28.2369 109.5 28.4872 109.71 28.694C109.921 28.9044 110.167 29.0096 110.454 29.0096C110.741 29.0096 110.991 28.9044 111.198 28.694C111.408 28.4836 111.513 28.2369 111.513 27.9503C111.513 27.6637 111.408 27.4134 111.198 27.2066C110.987 26.9961 110.741 26.8909 110.454 26.8909C110.167 26.8909 109.917 26.9961 109.71 27.2066C109.503 27.417 109.395 27.6637 109.395 27.9503ZM124.618 35.9753C124.618 36.6537 124.502 37.3067 124.266 37.9271C124.03 38.5475 123.693 39.0953 123.257 39.5669C122.818 40.0386 122.288 40.4123 121.668 40.6844C121.048 40.9564 120.351 41.0979 119.578 41.0979C118.795 41.0979 118.084 40.9565 117.449 40.6771C116.814 40.3941 116.277 40.0204 115.842 39.5488C115.403 39.0772 115.065 38.533 114.822 37.909C114.579 37.2886 114.459 36.6428 114.459 35.9753C114.459 35.2969 114.579 34.6438 114.822 34.0235C115.065 33.4031 115.403 32.8553 115.842 32.3836C116.281 31.912 116.817 31.5383 117.449 31.2553C118.084 30.9724 118.791 30.8345 119.578 30.8345C120.351 30.8345 121.048 30.976 121.668 31.2553C122.288 31.5383 122.818 31.912 123.257 32.3836C123.696 32.8553 124.034 33.3995 124.266 34.0235C124.498 34.6438 124.618 35.2932 124.618 35.9753ZM122.753 35.9753C122.753 35.0611 122.655 34.3173 122.459 33.7477C122.263 33.1782 122.009 32.7392 121.693 32.4235C121.378 32.1079 121.033 31.8975 120.652 31.785C120.271 31.6726 119.909 31.6181 119.553 31.6181C119.201 31.6181 118.835 31.6726 118.454 31.785C118.073 31.8975 117.724 32.1079 117.405 32.4235C117.086 32.7392 116.825 33.1782 116.622 33.7477C116.418 34.3173 116.317 35.0574 116.317 35.9753C116.317 36.8786 116.418 37.6151 116.622 38.1811C116.825 38.7507 117.086 39.1896 117.405 39.5053C117.724 39.8209 118.076 40.0313 118.454 40.1438C118.835 40.2563 119.197 40.3107 119.553 40.3107C119.905 40.3107 120.271 40.2563 120.652 40.1438C121.033 40.0313 121.378 39.8209 121.693 39.5053C122.009 39.1896 122.263 38.7507 122.459 38.1811C122.655 37.6115 122.753 36.875 122.753 35.9753ZM133.698 40.8585H135.367V34.5023C135.367 34.2665 135.349 33.9436 135.309 33.5301C135.269 33.1165 135.142 32.7138 134.928 32.3147C134.714 31.9156 134.37 31.571 133.898 31.2735C133.426 30.9796 132.759 30.8309 131.895 30.8309C131.514 30.8164 131.09 30.8925 130.622 31.0558C130.15 31.2191 129.686 31.5311 129.229 31.9882L128.913 32.3038H128.833V31.0486H127.164V40.8585H128.833V34.7962C128.833 34.2847 128.906 33.8493 129.047 33.4829C129.189 33.1165 129.388 32.8081 129.635 32.5614C129.882 32.3147 130.168 32.1297 130.488 32.0136C130.807 31.8975 131.137 31.8358 131.478 31.8358C132.026 31.8358 132.454 31.9447 132.752 32.1587C133.053 32.3727 133.27 32.6267 133.408 32.9133C133.546 33.1999 133.626 33.4902 133.655 33.7768C133.68 34.0634 133.695 34.2738 133.695 34.4044V40.8585H133.698ZM143.704 33.287H144.822C144.822 32.9351 144.731 32.6086 144.546 32.3074C144.365 32.0063 144.111 31.7487 143.792 31.5311C143.472 31.3134 143.099 31.1465 142.674 31.0195C142.25 30.8962 141.796 30.8345 141.31 30.8345C140.853 30.8345 140.425 30.8925 140.026 31.0123C139.627 31.1284 139.282 31.3061 138.984 31.542C138.691 31.7778 138.458 32.068 138.288 32.4163C138.117 32.7646 138.034 33.1636 138.034 33.6244C138.034 34.252 138.179 34.749 138.466 35.1155C138.752 35.4819 139.111 35.7758 139.543 35.9971C139.975 36.2184 140.443 36.3998 140.947 36.5376C141.451 36.6755 141.92 36.8242 142.351 36.9875C142.783 37.1507 143.142 37.3575 143.429 37.6042C143.715 37.8509 143.86 38.192 143.86 38.6237C143.86 38.8051 143.831 38.9974 143.773 39.1933C143.715 39.3892 143.607 39.5706 143.451 39.7338C143.295 39.8971 143.077 40.035 142.805 40.1474C142.533 40.2599 142.184 40.3143 141.764 40.3143C141.241 40.3143 140.798 40.2309 140.439 40.0676C140.08 39.9043 139.786 39.7084 139.558 39.4799C139.329 39.2513 139.166 39.0191 139.068 38.7833C138.97 38.5475 138.919 38.3516 138.919 38.1956H137.646C137.646 38.562 137.729 38.9175 137.9 39.2658C138.07 39.6141 138.328 39.9225 138.676 40.1982C139.024 40.4739 139.449 40.6916 139.95 40.8549C140.45 41.0181 141.038 41.1016 141.705 41.1016C142.91 41.1016 143.813 40.8367 144.423 40.307C145.032 39.7774 145.333 39.0808 145.333 38.2174C145.333 37.5897 145.185 37.0854 144.891 36.7081C144.597 36.3308 144.227 36.0261 143.781 35.7975C143.334 35.569 142.856 35.3839 142.34 35.2388C141.825 35.0937 141.343 34.945 140.9 34.789C140.454 34.633 140.087 34.4407 139.79 34.2194C139.496 33.9981 139.347 33.6824 139.347 33.2761C139.347 33.1056 139.38 32.9278 139.445 32.7355C139.511 32.5469 139.623 32.3691 139.779 32.2059C139.935 32.0426 140.145 31.9047 140.407 31.7923C140.668 31.6798 140.994 31.6254 141.386 31.6254C141.778 31.6254 142.119 31.6798 142.406 31.7923C142.692 31.9047 142.935 32.039 143.131 32.2059C143.327 32.3727 143.472 32.5505 143.563 32.7464C143.657 32.9351 143.704 33.1165 143.704 33.287Z"
                fill="#2E4396" />
        </g>
    </g>
    <defs>
        <clipPath id="clip0_108_760">
            <rect width="171" height="46" fill="white" />
        </clipPath>
    </defs>
</svg>