<svg width="16" height="18" viewBox="0 0 16 18" fill="none" xmlns="http://www.w3.org/2000/svg">
    <path fill-rule="evenodd" clip-rule="evenodd"
        d="M1.04178 1.0548C-1.05964e-07 2.1087 0 3.8061 0 7.2V10.8C0 14.1939 -1.05964e-07 15.8913 1.04178 16.9452C2.08356 17.9991 3.75911 18 7.11111 18H8.88889C12.2409 18 13.9173 18 14.9582 16.9452C15.9831 15.9084 16 14.2488 16 10.962L13.4951 13.4982C13.2551 13.7412 13.0587 13.9401 12.8373 14.1156C12.5777 14.3215 12.2963 14.4975 11.9982 14.6403C11.7254 14.7646 11.4452 14.8713 11.1591 14.9598L9.104 15.6537C8.77776 15.7639 8.42767 15.7798 8.09296 15.6999C7.75826 15.6199 7.45216 15.4471 7.20899 15.2009C6.96581 14.9547 6.79517 14.6448 6.71618 14.3059C6.63719 13.967 6.65298 13.6125 6.76178 13.2822L7.00533 12.5442L7.42756 11.2608L7.44622 11.2014C7.55378 10.8756 7.64178 10.6092 7.76267 10.3518C7.90489 10.0494 8.07763 9.7665 8.28089 9.5031C8.45422 9.2781 8.65067 9.0801 8.89067 8.8371L12.4516 5.2308L13.44 4.23L13.5529 4.1157C13.8549 3.80894 14.2139 3.56569 14.6092 3.39996C15.0045 3.23422 15.4282 3.14927 15.856 3.15C15.7218 2.223 15.4613 1.5633 14.9582 1.0548C13.9173 -1.07288e-07 12.2409 0 8.88889 0H7.11111C3.75911 0 2.08267 -1.07288e-07 1.04178 1.0548ZM3.77778 6.3C3.77778 6.12098 3.84802 5.94929 3.97304 5.8227C4.09806 5.69612 4.26763 5.625 4.44444 5.625H10.2222C10.399 5.625 10.5686 5.69612 10.6936 5.8227C10.8187 5.94929 10.8889 6.12098 10.8889 6.3C10.8889 6.47902 10.8187 6.65071 10.6936 6.7773C10.5686 6.90388 10.399 6.975 10.2222 6.975H4.44444C4.26763 6.975 4.09806 6.90388 3.97304 6.7773C3.84802 6.65071 3.77778 6.47902 3.77778 6.3ZM3.77778 9.9C3.77778 9.72098 3.84802 9.54929 3.97304 9.4227C4.09806 9.29612 4.26763 9.225 4.44444 9.225H6.66667C6.84348 9.225 7.01305 9.29612 7.13807 9.4227C7.2631 9.54929 7.33333 9.72098 7.33333 9.9C7.33333 10.079 7.2631 10.2507 7.13807 10.3773C7.01305 10.5039 6.84348 10.575 6.66667 10.575H4.44444C4.26763 10.575 4.09806 10.5039 3.97304 10.3773C3.84802 10.2507 3.77778 10.079 3.77778 9.9ZM3.77778 13.5C3.77778 13.321 3.84802 13.1493 3.97304 13.0227C4.09806 12.8961 4.26763 12.825 4.44444 12.825H5.77778C5.95459 12.825 6.12416 12.8961 6.24918 13.0227C6.37421 13.1493 6.44444 13.321 6.44444 13.5C6.44444 13.679 6.37421 13.8507 6.24918 13.9773C6.12416 14.1039 5.95459 14.175 5.77778 14.175H4.44444C4.26763 14.175 4.09806 14.1039 3.97304 13.9773C3.84802 13.8507 3.77778 13.679 3.77778 13.5Z"
        fill="#6F96D1" />
</svg>