<svg width="28" height="28" viewBox="0 0 28 28" fill="none" xmlns="http://www.w3.org/2000/svg">
<g clip-path="url(#clip0_5_567)">
<path d="M13.9563 0.875C8.26877 0.875 3.41252 4.55 1.61877 9.625H26.3813C24.5438 4.55 19.6875 0.875 13.9563 0.875Z" fill="#F9F9F9"/>
<path d="M13.9563 27.125C19.6875 27.125 24.5438 23.45 26.3375 18.375H1.61877C3.41252 23.4937 8.26877 27.125 13.9563 27.125Z" fill="#ED4C5C"/>
<path d="M1.61875 9.625C1.1375 10.9812 0.875 12.4688 0.875 14C0.875 15.5312 1.1375 17.0188 1.61875 18.375H26.3812C26.8625 17.0188 27.125 15.5312 27.125 14C27.125 12.4688 26.8625 10.9812 26.3812 9.625H1.61875Z" fill="#428BC1"/>
</g>
<defs>
<clipPath id="clip0_5_567">
<rect width="28" height="28" fill="white"/>
</clipPath>
</defs>
</svg>
