<svg width="16" height="15" viewBox="0 0 16 15" fill="none" xmlns="http://www.w3.org/2000/svg">
<path fill-rule="evenodd" clip-rule="evenodd" d="M13.6724 0.706779C13.8496 0.632206 14.0435 0.606487 14.234 0.632297C14.4245 0.658107 14.6046 0.734503 14.7555 0.853534C14.9065 0.972565 15.0228 1.12988 15.0923 1.3091C15.1618 1.48833 15.182 1.68291 15.1508 1.87259L13.5247 11.7361C13.367 12.6875 12.323 13.2332 11.4505 12.7592C10.7206 12.3627 9.63652 11.7519 8.66143 11.1145C8.17388 10.7954 6.68041 9.77372 6.86396 9.0467C7.02169 8.42508 9.53113 6.08916 10.9651 4.70036C11.5279 4.15474 11.2712 3.83999 10.6066 4.34187C8.95611 5.58799 6.30614 7.48297 5.42999 8.0164C4.65709 8.48674 4.25414 8.56704 3.77233 8.48674C2.89331 8.34048 2.07811 8.11391 1.41275 7.83787C0.513653 7.46504 0.557388 6.22897 1.41203 5.86904L13.6724 0.706779Z" fill="#6F96D1"/>
</svg>
