<svg width="16" height="15" viewBox="0 0 16 15"  xmlns="http://www.w3.org/2000/svg">
    <path fill-rule="evenodd" clip-rule="evenodd"
        d="M13.6724 0.707267C13.8496 0.632695 14.0435 0.606975 14.234 0.632785C14.4245 0.658595 14.6046 0.734992 14.7555 0.854023C14.9065 0.973053 15.0228 1.13037 15.0923 1.30959C15.1618 1.48881 15.182 1.68339 15.1508 1.87308L13.5247 11.7366C13.367 12.688 12.323 13.2336 11.4505 12.7597C10.7206 12.3632 9.63652 11.7524 8.66143 11.115C8.17388 10.7959 6.68041 9.77421 6.86396 9.04719C7.02169 8.42557 9.53113 6.08964 10.9651 4.70085C11.5279 4.15523 11.2712 3.84047 10.6066 4.34236C8.95611 5.58847 6.30614 7.48346 5.42999 8.01689C4.65709 8.48723 4.25414 8.56753 3.77233 8.48723C2.89331 8.34097 2.07811 8.1144 1.41275 7.83836C0.513653 7.46553 0.557388 6.22946 1.41203 5.86953L13.6724 0.707267Z"
    />
</svg>