<svg xmlns="http://www.w3.org/2000/svg" xmlns:xlink="http://www.w3.org/1999/xlink"><defs><symbol viewBox="0 0 19 9" id="arrow-bottom">
    <g clip-path="url(#arrow-bottom_clip0_108_715)">
        <path fill-rule="evenodd" clip-rule="evenodd" d="M8.93704 7.6177L4.45858 3.37495L5.57799 2.31445L9.49675 6.02695L13.4155 2.31445L14.5349 3.37495L10.0565 7.6177C9.90799 7.75831 9.70667 7.83729 9.49675 7.83729C9.28682 7.83729 9.0855 7.75831 8.93704 7.6177Z" />
    </g>
    <defs>
        
    </defs>
</symbol><clipPath id="arrow-bottom_clip0_108_715">
            <rect width="9" height="19" fill="white" transform="translate(19) rotate(90)" />
        </clipPath><symbol viewBox="0 0 17 18" fill="none" id="bank">
    <path fill-rule="evenodd" clip-rule="evenodd" d="M9.0695 0.131097L16.2945 4.06114C16.5066 4.16421 16.685 4.32279 16.8096 4.51907C16.9342 4.71536 17.0002 4.94157 17 5.17231V6.36374C17 6.93463 16.524 7.39796 15.9375 7.39796H15.3V14.017H16.15C16.3754 14.017 16.5916 14.1042 16.751 14.2593C16.9104 14.4145 17 14.6249 17 14.8444C17 15.0638 16.9104 15.2742 16.751 15.4294C16.5916 15.5846 16.3754 15.6717 16.15 15.6717H0.85C0.624566 15.6717 0.408365 15.5846 0.248959 15.4294C0.0895533 15.2742 0 15.0638 0 14.8444C0 14.6249 0.0895533 14.4145 0.248959 14.2593C0.408365 14.1042 0.624566 14.017 0.85 14.017H1.7V7.39796H1.0625C0.476 7.39796 0 6.93463 0 6.36374V5.17231C0 4.74042 0.2295 4.34328 0.6001 4.11823L7.92965 0.131097C8.10673 0.0448845 8.30201 0 8.5 0C8.698 0 8.89242 0.0448845 9.0695 0.131097ZM12.75 7.39796H4.25V14.017H5.95V9.05272H7.65V14.017H9.35V9.05272H11.05V14.017H12.75V7.39796ZM8.5 3.26107C8.27457 3.26107 8.05837 3.34824 7.89896 3.5034C7.73955 3.65857 7.65 3.86901 7.65 4.08845C7.65 4.30788 7.73955 4.51833 7.89896 4.67349C8.05837 4.82866 8.27457 4.91583 8.5 4.91583C8.72543 4.91583 8.94163 4.82866 9.10104 4.67349C9.26045 4.51833 9.35 4.30788 9.35 4.08845C9.35 3.86901 9.26045 3.65857 9.10104 3.5034C8.94163 3.34824 8.72543 3.26107 8.5 3.26107Z" fill="#6F96D1" />
</symbol><symbol viewBox="0 0 30 30" fill="none" id="blue-check">
    <path fill-rule="evenodd" clip-rule="evenodd" d="M15 30C16.9698 30 18.9204 29.612 20.7403 28.8582C22.5601 28.1044 24.2137 26.9995 25.6066 25.6066C26.9995 24.2137 28.1044 22.5601 28.8582 20.7403C29.612 18.9204 30 16.9698 30 15C30 13.0302 29.612 11.0796 28.8582 9.25975C28.1044 7.43986 26.9995 5.78628 25.6066 4.3934C24.2137 3.00052 22.5601 1.89563 20.7403 1.14181C18.9204 0.387986 16.9698 -2.93527e-08 15 0C11.0218 5.92805e-08 7.20644 1.58035 4.3934 4.3934C1.58035 7.20644 0 11.0218 0 15C0 18.9782 1.58035 22.7936 4.3934 25.6066C7.20644 28.4196 11.0218 30 15 30ZM14.6133 21.0667L22.9467 11.0667L20.3867 8.93333L13.22 17.5317L9.51167 13.8217L7.155 16.1783L12.155 21.1783L13.445 22.4683L14.6133 21.0667Z" fill="#2E4396" />
</symbol><symbol viewBox="0 0 15 17" fill="none" id="calc">
    <path d="M12.5 0C13.163 0 13.7989 0.26866 14.2678 0.746878C14.7366 1.2251 15 1.8737 15 2.55V14.45C15 15.1263 14.7366 15.7749 14.2678 16.2531C13.7989 16.7313 13.163 17 12.5 17H2.5C1.83696 17 1.20107 16.7313 0.732233 16.2531C0.263392 15.7749 0 15.1263 0 14.45V2.55C0 1.8737 0.263392 1.2251 0.732233 0.746878C1.20107 0.26866 1.83696 0 2.5 0H12.5ZM4.16667 12.75C3.94565 12.75 3.73369 12.8396 3.57741 12.999C3.42113 13.1584 3.33333 13.3746 3.33333 13.6L3.33917 13.708C3.36425 13.9231 3.46893 14.1203 3.63181 14.2594C3.79468 14.3984 4.00347 14.4688 4.2155 14.4561C4.42754 14.4434 4.62682 14.3486 4.77263 14.1911C4.91843 14.0335 4.99976 13.8251 5 13.6085L4.99417 13.5005C4.97029 13.2938 4.87284 13.1032 4.72031 12.9648C4.56778 12.8265 4.37078 12.75 4.16667 12.75ZM7.5 12.75C7.27899 12.75 7.06702 12.8396 6.91074 12.999C6.75446 13.1584 6.66667 13.3746 6.66667 13.6L6.6725 13.708C6.69759 13.9231 6.80226 14.1203 6.96514 14.2594C7.12802 14.3984 7.3368 14.4688 7.54884 14.4561C7.76087 14.4434 7.96015 14.3486 8.10596 14.1911C8.25177 14.0335 8.3331 13.8251 8.33333 13.6085L8.3275 13.5005C8.30362 13.2938 8.20617 13.1032 8.05364 12.9648C7.90111 12.8265 7.70411 12.75 7.5 12.75ZM10.8333 12.75C10.6123 12.75 10.4004 12.8396 10.2441 12.999C10.0878 13.1584 10 13.3746 10 13.6L10.0058 13.708C10.0309 13.9231 10.1356 14.1203 10.2985 14.2594C10.4614 14.3984 10.6701 14.4688 10.8822 14.4561C11.0942 14.4434 11.2935 14.3486 11.4393 14.1911C11.5851 14.0335 11.6664 13.8251 11.6667 13.6085L11.6608 13.5005C11.637 13.2938 11.5395 13.1032 11.387 12.9648C11.2344 12.8265 11.0374 12.75 10.8333 12.75ZM4.16667 9.35C3.94565 9.35 3.73369 9.43955 3.57741 9.59896C3.42113 9.75837 3.33333 9.97457 3.33333 10.2L3.33917 10.308C3.36425 10.5231 3.46893 10.7203 3.63181 10.8594C3.79468 10.9984 4.00347 11.0688 4.2155 11.0561C4.42754 11.0434 4.62682 10.9486 4.77263 10.7911C4.91843 10.6335 4.99976 10.4251 5 10.2085L4.99417 10.1006C4.97029 9.89379 4.87284 9.70315 4.72031 9.56481C4.56778 9.42646 4.37078 9.35003 4.16667 9.35ZM7.5 9.35C7.27899 9.35 7.06702 9.43955 6.91074 9.59896C6.75446 9.75837 6.66667 9.97457 6.66667 10.2L6.6725 10.308C6.69759 10.5231 6.80226 10.7203 6.96514 10.8594C7.12802 10.9984 7.3368 11.0688 7.54884 11.0561C7.76087 11.0434 7.96015 10.9486 8.10596 10.7911C8.25177 10.6335 8.3331 10.4251 8.33333 10.2085L8.3275 10.1006C8.30362 9.89379 8.20617 9.70315 8.05364 9.56481C7.90111 9.42646 7.70411 9.35003 7.5 9.35ZM10.8333 9.35C10.6123 9.35 10.4004 9.43955 10.2441 9.59896C10.0878 9.75837 10 9.97457 10 10.2L10.0058 10.308C10.0309 10.5231 10.1356 10.7203 10.2985 10.8594C10.4614 10.9984 10.6701 11.0688 10.8822 11.0561C11.0942 11.0434 11.2935 10.9486 11.4393 10.7911C11.5851 10.6335 11.6664 10.4251 11.6667 10.2085L11.6608 10.1006C11.637 9.89379 11.5395 9.70315 11.387 9.56481C11.2344 9.42646 11.0374 9.35003 10.8333 9.35ZM10 3.4H5C4.55797 3.4 4.13405 3.57911 3.82149 3.89792C3.50893 4.21673 3.33333 4.64913 3.33333 5.1V5.95C3.33333 6.40087 3.50893 6.83327 3.82149 7.15208C4.13405 7.47089 4.55797 7.65 5 7.65H10C10.442 7.65 10.866 7.47089 11.1785 7.15208C11.4911 6.83327 11.6667 6.40087 11.6667 5.95V5.1C11.6667 4.64913 11.4911 4.21673 11.1785 3.89792C10.866 3.57911 10.442 3.4 10 3.4Z" fill="#6F96D1" />
</symbol><symbol viewBox="0 0 19 19" fill="none" id="check-s">
    <path fill-rule="evenodd" clip-rule="evenodd" d="M9.5 19C10.7476 19 11.9829 18.7543 13.1355 18.2769C14.2881 17.7994 15.3354 17.0997 16.2175 16.2175C17.0997 15.3354 17.7994 14.2881 18.2769 13.1355C18.7543 11.9829 19 10.7476 19 9.5C19 8.25244 18.7543 7.0171 18.2769 5.86451C17.7994 4.71191 17.0997 3.66464 16.2175 2.78249C15.3354 1.90033 14.2881 1.20056 13.1355 0.723144C11.9829 0.245725 10.7476 -1.85901e-08 9.5 0C6.98044 3.75443e-08 4.56408 1.00089 2.78249 2.78249C1.00089 4.56408 0 6.98044 0 9.5C0 12.0196 1.00089 14.4359 2.78249 16.2175C4.56408 17.9991 6.98044 19 9.5 19ZM9.25511 13.3422L14.5329 7.00889L12.9116 5.65778L8.37267 11.1034L6.02406 8.75372L4.5315 10.2463L7.69817 13.4129L8.51517 14.2299L9.25511 13.3422Z" fill="#6F96D1" />
</symbol><symbol viewBox="0 0 45 42" fill="none" id="dimond">
<path d="M3.46416 13.6924H41.5358M2.31286 14.8077L21.3258 39.4219C21.464 39.6017 21.6418 39.7474 21.8454 39.8476C22.049 39.9479 22.273 40 22.5 40C22.727 40 22.951 39.9479 23.1546 39.8476C23.3582 39.7474 23.536 39.6017 23.6742 39.4219L42.6871 14.8077C42.8741 14.5648 42.9825 14.2708 42.9981 13.9648C43.0136 13.6589 42.9355 13.3555 42.7741 13.095L36.3248 2.70428C36.192 2.48925 36.0064 2.31167 35.7855 2.1884C35.5646 2.06514 35.3158 2.00028 35.0627 2H9.93726C9.6842 2.00028 9.43541 2.06514 9.21452 2.1884C8.99364 2.31167 8.80799 2.48925 8.67522 2.70428L2.22592 13.095C2.06453 13.3555 1.98641 13.6589 2.00194 13.9648C2.01747 14.2708 2.12591 14.5648 2.31286 14.8077Z" stroke="#2E4396" stroke-width="3" stroke-linecap="round" stroke-linejoin="round" />
<path d="M35.6787 3.46154L31.2858 13.6924M31.2858 13.6924L22.5001 2L13.7143 13.6924M31.2858 13.6924L22.5001 38.5386L13.7143 13.6924M9.32141 3.46154L13.7143 13.6924" stroke="#2E4396" stroke-width="3" stroke-linecap="round" stroke-linejoin="round" />
</symbol><symbol viewBox="0 0 25 25" fill="none" id="eng-flag">
<path d="M8.33333 24.2917V18.5417L4.04167 21.7083C5.25 22.8333 6.70833 23.7083 8.33333 24.2917ZM16.6667 24.2917C18.2917 23.7083 19.75 22.8333 20.9583 21.7083L16.6667 18.5V24.2917ZM0.708333 16.6667C0.833333 17.0833 1 17.4583 1.20833 17.875L2.83333 16.6667H0.708333ZM22.1667 16.6667L23.7917 17.875C23.9583 17.5 24.125 17.0833 24.2917 16.6667H22.1667Z" fill="#2A5F9E" />
<path d="M0.25 15C0.375 15.5833 0.541667 16.125 0.708333 16.6667H2.83333L1.20833 17.875C1.54167 18.5833 1.91667 19.2083 2.375 19.8333L6.66667 16.6667H8.33333V17.5L3.45833 21.0833L4.04167 21.6667L8.33333 18.5417V24.2917C8.875 24.5 9.41667 24.625 10 24.75V15H0.25ZM24.75 15H15V24.75C15.5833 24.625 16.125 24.4583 16.6667 24.2917V18.5417L20.9583 21.6667C21.5417 21.125 22.0417 20.5417 22.5417 19.9167L18.0833 16.6667H20.9167L23.4583 18.5417C23.5833 18.3333 23.7083 18.0833 23.7917 17.875L22.1667 16.6667H24.2917C24.4583 16.125 24.625 15.5833 24.75 15Z" fill="white" />
<path d="M2.375 19.8333C2.70833 20.2917 3.04167 20.7083 3.41667 21.125L8.33333 17.5417V16.7083H6.66667L2.375 19.8333ZM18.125 16.6667L22.5833 19.9167C22.75 19.7083 22.875 19.5 23.0417 19.2917C23.0833 19.25 23.0833 19.2083 23.125 19.2083C23.25 19 23.4167 18.75 23.5417 18.5417L20.9167 16.6667H18.125Z" fill="#ED4C5C" />
<path d="M16.6667 0.708333V6.45833L20.9583 3.29167C19.75 2.16667 18.2917 1.29167 16.6667 0.708333ZM8.33333 0.708333C6.70833 1.29167 5.25 2.16667 4.04167 3.29167L8.33333 6.5V0.708333ZM24.2917 8.33333C24.1667 7.91667 24 7.54167 23.7917 7.125L22.1667 8.33333H24.2917ZM2.83333 8.33333L1.20833 7.125C1.04167 7.54167 0.875 7.91667 0.708333 8.33333H2.83333Z" fill="#2A5F9E" />
<path d="M24.7083 10C24.5833 9.41667 24.4167 8.875 24.25 8.33333H22.125L23.75 7.125C23.4167 6.41667 23.0417 5.79167 22.5833 5.16667L18.3333 8.33333H16.6667V7.5L21.5417 3.91667L20.9583 3.33333L16.6667 6.45833V0.708333C16.125 0.5 15.5833 0.375 15 0.25V10H24.7083ZM0.25 10H10V0.25C9.41667 0.375 8.875 0.541667 8.33333 0.708333V6.45833L4.04167 3.33333C3.45833 3.875 2.95833 4.45833 2.45833 5.08333L6.91667 8.33333H4.08333L1.54167 6.45833C1.41667 6.66667 1.29167 6.91667 1.20833 7.125L2.83333 8.33333H0.708333C0.541667 8.875 0.375 9.41667 0.25 10Z" fill="white" />
<path d="M22.625 5.16667C22.2917 4.70833 21.9583 4.29167 21.5833 3.875L16.6667 7.45833V8.29167H18.3333L22.625 5.16667ZM6.875 8.33333L2.45833 5.08333C2.29167 5.29167 2.16667 5.5 2 5.70833C1.95833 5.75 1.95833 5.79167 1.91667 5.79167C1.79167 6 1.625 6.25 1.5 6.45833L4.04167 8.33333H6.875Z" fill="#ED4C5C" />
<path d="M24.75 10H15V0.25C14.2083 0.0833333 13.375 0 12.5 0C11.1875 0 10.7917 0.0833333 10 0.25V10H0.25C0.0833333 10.7917 0 11.625 0 12.5C0 13.8125 0.0833333 14.2083 0.25 15H10V24.75C10.7917 24.9167 11.625 25 12.5 25C13.8125 25 14.2083 24.9167 15 24.75V15H24.75C24.9167 14.2083 25 13.375 25 12.5C25 11.1875 24.9167 10.7917 24.75 10Z" fill="#ED4C5C" />
</symbol><symbol viewBox="0 0 15 15" fill="none" id="file-1">
<path d="M13.75 0H1.25C0.918479 0 0.600537 0.131696 0.366116 0.366116C0.131696 0.600537 0 0.918479 0 1.25V13.75C0 14.0815 0.131696 14.3995 0.366116 14.6339C0.600537 14.8683 0.918479 15 1.25 15H13.75C14.0815 15 14.3995 14.8683 14.6339 14.6339C14.8683 14.3995 15 14.0815 15 13.75V1.25C15 0.918479 14.8683 0.600537 14.6339 0.366116C14.3995 0.131696 14.0815 0 13.75 0ZM12.5 11.875H2.5C2.33424 11.875 2.17527 11.8092 2.05806 11.6919C1.94085 11.5747 1.875 11.4158 1.875 11.25C1.875 11.0842 1.94085 10.9253 2.05806 10.8081C2.17527 10.6908 2.33424 10.625 2.5 10.625H12.5C12.6658 10.625 12.8247 10.6908 12.9419 10.8081C13.0592 10.9253 13.125 11.0842 13.125 11.25C13.125 11.4158 13.0592 11.5747 12.9419 11.6919C12.8247 11.8092 12.6658 11.875 12.5 11.875ZM12.5 8.125H2.5C2.33424 8.125 2.17527 8.05915 2.05806 7.94194C1.94085 7.82473 1.875 7.66576 1.875 7.5C1.875 7.33424 1.94085 7.17527 2.05806 7.05806C2.17527 6.94085 2.33424 6.875 2.5 6.875H12.5C12.6658 6.875 12.8247 6.94085 12.9419 7.05806C13.0592 7.17527 13.125 7.33424 13.125 7.5C13.125 7.66576 13.0592 7.82473 12.9419 7.94194C12.8247 8.05915 12.6658 8.125 12.5 8.125ZM12.5 4.375H2.5C2.33424 4.375 2.17527 4.30915 2.05806 4.19194C1.94085 4.07473 1.875 3.91576 1.875 3.75C1.875 3.58424 1.94085 3.42527 2.05806 3.30806C2.17527 3.19085 2.33424 3.125 2.5 3.125H12.5C12.6658 3.125 12.8247 3.19085 12.9419 3.30806C13.0592 3.42527 13.125 3.58424 13.125 3.75C13.125 3.91576 13.0592 4.07473 12.9419 4.19194C12.8247 4.30915 12.6658 4.375 12.5 4.375Z" fill="#6F96D1" />
</symbol><symbol viewBox="0 0 14 18" fill="none" id="file-2">
<path fill-rule="evenodd" clip-rule="evenodd" d="M9.03226 0.230769C9.03226 0.169565 9.00847 0.110868 8.96612 0.0675908C8.92377 0.0243132 8.86634 0 8.80645 0H2.48387C1.82511 0 1.19332 0.267444 0.727509 0.743498C0.261693 1.21955 0 1.86522 0 2.53846V15.4615C0 16.1348 0.261693 16.7804 0.727509 17.2565C1.19332 17.7326 1.82511 18 2.48387 18H11.5161C12.1749 18 12.8067 17.7326 13.2725 17.2565C13.7383 16.7804 14 16.1348 14 15.4615V6.36646C14 6.30526 13.9762 6.24656 13.9339 6.20328C13.8915 6.16001 13.8341 6.13569 13.7742 6.13569H9.70968C9.53001 6.13569 9.35771 6.06275 9.23067 5.93292C9.10363 5.80309 9.03226 5.627 9.03226 5.44338V0.230769ZM9.70968 9.23077C9.88934 9.23077 10.0616 9.30371 10.1887 9.43354C10.3157 9.56337 10.3871 9.73947 10.3871 9.92308C10.3871 10.1067 10.3157 10.2828 10.1887 10.4126C10.0616 10.5424 9.88934 10.6154 9.70968 10.6154H4.29032C4.11066 10.6154 3.93836 10.5424 3.81131 10.4126C3.68427 10.2828 3.6129 10.1067 3.6129 9.92308C3.6129 9.73947 3.68427 9.56337 3.81131 9.43354C3.93836 9.30371 4.11066 9.23077 4.29032 9.23077H9.70968ZM9.70968 12.9231C9.88934 12.9231 10.0616 12.996 10.1887 13.1258C10.3157 13.2557 10.3871 13.4318 10.3871 13.6154C10.3871 13.799 10.3157 13.9751 10.1887 14.1049C10.0616 14.2348 9.88934 14.3077 9.70968 14.3077H4.29032C4.11066 14.3077 3.93836 14.2348 3.81131 14.1049C3.68427 13.9751 3.6129 13.799 3.6129 13.6154C3.6129 13.4318 3.68427 13.2557 3.81131 13.1258C3.93836 12.996 4.11066 12.9231 4.29032 12.9231H9.70968Z" fill="#6F96D1" />
<path d="M11 0.24109C11 0.0496095 11.1566 -0.0721469 11.2726 0.0475283C11.371 0.149512 11.4584 0.268147 11.5346 0.403432L13.9789 4.77106C14.0341 4.87096 13.9741 5 13.8783 5H11.2028C11.149 5 11.0974 4.97259 11.0594 4.9238C11.0214 4.87501 11 4.80884 11 4.73984V0.24109Z" fill="#6F96D1" />
</symbol><symbol viewBox="0 0 171 46" fill="none" id="logo">
    <g clip-path="url(#logo_clip0_108_760)">
        
        <g mask="url(#logo_mask0_108_760)">
            <path d="M30.3481 0.842598L30.2465 0.668457L21.3543 0.672085L0 37.6516L4.43703 45.3247L47.1638 45.332L51.5899 37.6516L30.3481 0.842598ZM4.64019 44.2799L4.17218 43.4708L21.5647 13.3444L31.1644 29.9749H30.2139L21.5575 14.977L4.64019 44.2799ZM29.4121 29.9749H22.1888L25.8022 23.7203L29.4121 29.9749ZM35.5434 29.9749L21.6663 5.93985L21.5466 5.72943L1.96274 39.6506L1.44031 38.7509L21.5393 3.94085L36.5737 29.9785L35.5434 29.9749ZM21.5466 6.28813L35.2241 29.9749H34.1938L21.5539 8.08396L2.6448 40.8297L2.12237 39.93L21.5466 6.28813ZM21.5539 8.64266L33.8709 29.9785H32.8405L21.5575 10.4384L3.32686 42.0124L2.80443 41.1127L21.5539 8.64266ZM21.5575 10.9935L32.5176 29.9749H31.4873L21.5647 12.7857L4.00892 43.1915L3.48649 42.2881L21.5575 10.9935ZM22.7293 18.4018L8.73619 42.64H47.9112L47.3924 43.5434H7.18341L22.2141 17.5129L22.7293 18.4018ZM9.21871 42.3607L22.889 18.6811L23.4041 19.5736L10.7679 41.461H48.5896L48.0708 42.3643L9.21871 42.3607ZM11.254 41.178L23.5674 19.8493L24.0826 20.7418L12.8032 40.2746H49.2717L48.7529 41.178H11.254ZM13.2857 39.9989L24.2422 21.0248L24.7574 21.9172L14.8385 39.0992H49.9537L49.4349 40.0025H13.2857V39.9989ZM15.321 38.8162L24.9206 22.193L25.3995 23.0238L16.7504 37.9999H50.585L50.1134 38.8162H15.321ZM21.5575 1.72055L37.8689 29.9785H36.8966L21.6627 3.58894L21.543 3.37852L1.28068 38.4715L0.805413 37.6516L21.5575 1.72055ZM46.7611 44.6318L5.24607 44.6281L21.5611 16.3738L22.0581 17.2336L6.82787 43.6123L6.70814 43.8227H47.2364L46.7611 44.6318Z" fill="#C0D5E5" />
            <path d="M21.5575 16.3736L4.43703 45.3245L0 37.6515L21.3543 0.671875L21.5575 16.3736Z" fill="#6F96D1" />
            <path d="M29.4122 29.9747L21.5576 16.3736L21.3545 0.671875L37.8691 29.9747H29.4122Z" fill="#6F96D1" />
            <path d="M25.7986 23.7201L21.5575 16.3735L4.43701 45.3245H13.2857L25.7986 23.7201Z" fill="#2E4396" />
            <path d="M47.1639 45.3322L12.3716 45.325L16.6707 38.0001L51.5901 37.6519L47.1639 45.3322Z" fill="#2E4396" />
            <path d="M64.6871 20.2591H66.472V7.60482H71.729V6.52732H59.4301V7.60482H64.6871V20.2591ZM73.9638 10.2351C74.918 10.2351 75.6581 10.3693 76.1805 10.6378C76.703 10.9062 77.0875 11.2545 77.327 11.6862C77.57 12.118 77.7079 12.615 77.7478 13.1773C77.7877 13.7397 77.8059 14.3165 77.8059 14.9042V20.2591H76.2168V19.2977C75.8359 19.6641 75.3533 19.9543 74.7656 20.172C74.1779 20.386 73.5901 20.4949 72.9988 20.4949C72.4364 20.4949 71.9394 20.3969 71.5077 20.201C71.076 20.0051 70.7168 19.7512 70.4302 19.4355C70.1436 19.1199 69.9259 18.768 69.7844 18.3762C69.6393 17.9843 69.5703 17.5853 69.5703 17.1789C69.5703 16.7617 69.6502 16.3409 69.8062 15.9237C69.9622 15.5065 70.198 15.1292 70.5136 14.7954C70.8292 14.4616 71.2138 14.1895 71.6709 13.9827C72.1281 13.7723 72.6505 13.6671 73.2419 13.6671C73.8296 13.6671 74.3883 13.7832 74.918 14.0118C75.4477 14.2403 75.883 14.5632 76.2241 14.984V14.1387C76.2241 13.0649 76.0644 12.2667 75.7452 11.7443C75.4259 11.2219 74.8382 10.9607 73.9892 10.9607C73.6228 10.9607 73.3035 11.0078 73.0278 11.0985C72.7521 11.1892 72.509 11.3162 72.2913 11.4795C72.0773 11.6427 71.8777 11.8459 71.6927 12.0889C71.5113 12.332 71.3263 12.6005 71.1449 12.9016L70.1254 11.8822C70.3068 11.6862 70.5027 11.4903 70.7059 11.2944C70.9091 11.0985 71.1558 10.9208 71.4496 10.7648C71.7435 10.6087 72.0954 10.4818 72.4981 10.3838C72.9008 10.2859 73.3906 10.2351 73.9638 10.2351ZM76.2204 17.8864V16.3772C76.1551 16.2212 76.0608 16.0361 75.9375 15.8294C75.8141 15.6189 75.6545 15.4158 75.4586 15.2199C75.2626 15.0239 75.0268 14.8571 74.7511 14.7192C74.4754 14.5813 74.1489 14.5124 73.7715 14.5124C73.3906 14.5124 73.0459 14.5886 72.7303 14.7373C72.4147 14.8861 72.1498 15.0856 71.9358 15.3251C71.7217 15.5681 71.5548 15.8511 71.4351 16.1776C71.319 16.5041 71.2573 16.8452 71.2573 17.1971C71.2573 17.6143 71.3335 17.9771 71.4823 18.2855C71.631 18.5938 71.8269 18.8551 72.0628 19.0691C72.2986 19.2831 72.5598 19.4464 72.8464 19.548C73.133 19.6532 73.4087 19.704 73.67 19.704C73.9167 19.704 74.1706 19.6568 74.4246 19.5661C74.6785 19.4754 74.9216 19.3485 75.1502 19.1852C75.3787 19.0219 75.5855 18.8297 75.7669 18.6047C75.952 18.3907 76.1043 18.1476 76.2204 17.8864ZM83.2442 10.4527H81.5753V20.2591H83.2442V10.4527ZM81.3432 7.35086C81.3432 7.63747 81.4484 7.8878 81.6588 8.09459C81.8692 8.30138 82.1159 8.41022 82.4025 8.41022C82.6891 8.41022 82.9395 8.30501 83.1463 8.09459C83.3531 7.88417 83.4619 7.63747 83.4619 7.35086C83.4619 7.06425 83.3567 6.81393 83.1463 6.60713C82.9358 6.39671 82.6891 6.2915 82.4025 6.2915C82.1159 6.2915 81.8656 6.39671 81.6588 6.60713C81.4447 6.81393 81.3432 7.06425 81.3432 7.35086ZM89.0526 20.2591V6.52732H87.3837V20.2591H89.0526ZM102.157 15.3759C102.157 16.0543 102.041 16.7073 101.805 17.3277C101.569 17.9481 101.232 18.4959 100.796 18.9675C100.357 19.4391 99.8277 19.8128 99.2073 20.0849C98.587 20.3606 97.8904 20.4985 97.1176 20.4985C96.334 20.4985 95.6229 20.357 94.988 20.0777C94.3531 19.7947 93.8162 19.421 93.3808 18.9494C92.9418 18.4777 92.6044 17.9336 92.3613 17.3096C92.1183 16.6892 91.9985 16.0434 91.9985 15.3759C91.9985 14.6974 92.1183 14.0444 92.3613 13.424C92.6044 12.8037 92.9418 12.2558 93.3808 11.7842C93.8198 11.3126 94.3567 10.9389 94.988 10.6559C95.6229 10.3729 96.3303 10.2351 97.1176 10.2351C97.8904 10.2351 98.587 10.3766 99.2073 10.6559C99.8277 10.9389 100.357 11.3126 100.796 11.7842C101.235 12.2558 101.573 12.8 101.805 13.424C102.037 14.048 102.157 14.6938 102.157 15.3759ZM100.292 15.3759C100.292 14.4616 100.194 13.7179 99.9982 13.1483C99.8023 12.5787 99.5484 12.1397 99.2327 11.8241C98.9171 11.5085 98.5724 11.2981 98.1915 11.1856C97.8106 11.0731 97.4478 11.0187 97.0922 11.0187C96.7403 11.0187 96.3739 11.0731 95.9929 11.1856C95.612 11.2981 95.2637 11.5085 94.9445 11.8241C94.6252 12.1397 94.364 12.5787 94.1608 13.1483C93.9576 13.7179 93.8561 14.458 93.8561 15.3759C93.8561 16.2792 93.9576 17.0157 94.1608 17.5816C94.364 18.1512 94.6252 18.5902 94.9445 18.9058C95.2637 19.2215 95.6156 19.4319 95.9929 19.5444C96.3739 19.6568 96.7367 19.7112 97.0922 19.7112C97.4441 19.7112 97.8106 19.6568 98.1915 19.5444C98.5724 19.4319 98.9171 19.2215 99.2327 18.9058C99.5484 18.5902 99.8023 18.1512 99.9982 17.5816C100.194 17.0121 100.292 16.2792 100.292 15.3759ZM106.373 10.4527H104.704V20.2591H106.373V14.3346C106.373 13.7977 106.434 13.3442 106.558 12.9705C106.681 12.5969 106.841 12.2921 107.036 12.0599C107.232 11.8241 107.45 11.6536 107.682 11.5484C107.914 11.4432 108.147 11.3924 108.368 11.3924C108.669 11.3924 108.948 11.4903 109.202 11.6862C109.456 11.8822 109.645 12.0672 109.761 12.2341L110.429 11.0187C110.313 10.8627 110.171 10.7321 110.008 10.6269C109.844 10.5217 109.681 10.4419 109.518 10.3802C109.355 10.3221 109.202 10.2822 109.068 10.2641C108.93 10.246 108.829 10.2351 108.763 10.2351C108.216 10.2351 107.755 10.3838 107.392 10.6849C107.026 10.9861 106.724 11.4287 106.489 12.02H106.373V10.4527ZM111.807 14.2766H116.654V15.7495H111.807V14.2766ZM127.814 18.3181L121.516 6.52732H120.181V20.2591H121.044V9.05962H121.124L127.186 20.4985H127.538L133.738 9.13944H133.818V20.2591H135.603V6.52732H134.25L127.894 18.3181H127.814ZM143.135 10.2351C144.089 10.2351 144.829 10.3693 145.352 10.6378C145.874 10.9062 146.259 11.2545 146.498 11.6862C146.741 12.118 146.879 12.615 146.919 13.1773C146.959 13.7397 146.977 14.3165 146.977 14.9042V20.2591H145.388V19.2977C145.007 19.6641 144.524 19.9543 143.937 20.172C143.349 20.386 142.761 20.4949 142.17 20.4949C141.607 20.4949 141.11 20.3969 140.679 20.201C140.247 20.0051 139.888 19.7512 139.601 19.4355C139.315 19.1199 139.097 18.768 138.955 18.3762C138.814 17.9843 138.741 17.5853 138.741 17.1789C138.741 16.7617 138.821 16.3409 138.977 15.9237C139.133 15.5065 139.369 15.1292 139.685 14.7954C140 14.4616 140.385 14.1895 140.842 13.9827C141.299 13.7723 141.822 13.6671 142.413 13.6671C143.001 13.6671 143.559 13.7832 144.089 14.0118C144.619 14.2403 145.054 14.5632 145.395 14.984V14.1387C145.395 13.0649 145.235 12.2667 144.916 11.7443C144.597 11.2219 144.009 10.9607 143.16 10.9607C142.794 10.9607 142.475 11.0078 142.199 11.0985C141.923 11.1892 141.68 11.3162 141.462 11.4795C141.248 11.6427 141.049 11.8459 140.864 12.0889C140.682 12.332 140.497 12.6005 140.316 12.9016L139.296 11.8822C139.478 11.6862 139.674 11.4903 139.877 11.2944C140.08 11.0985 140.327 10.9208 140.621 10.7648C140.915 10.6087 141.266 10.4818 141.669 10.3838C142.068 10.2859 142.558 10.2351 143.135 10.2351ZM145.391 17.8864V16.3772C145.326 16.2212 145.232 16.0361 145.109 15.8294C144.985 15.6189 144.826 15.4158 144.63 15.2199C144.434 15.0239 144.198 14.8571 143.922 14.7192C143.646 14.5813 143.32 14.5124 142.943 14.5124C142.562 14.5124 142.217 14.5886 141.901 14.7373C141.586 14.8861 141.321 15.0856 141.107 15.3251C140.893 15.5681 140.726 15.8511 140.606 16.1776C140.49 16.5041 140.428 16.8452 140.428 17.1971C140.428 17.6143 140.505 17.9771 140.653 18.2855C140.802 18.5938 140.998 18.8551 141.234 19.0691C141.47 19.2831 141.731 19.4464 142.017 19.548C142.304 19.6496 142.58 19.704 142.841 19.704C143.088 19.704 143.342 19.6568 143.596 19.5661C143.85 19.4754 144.093 19.3485 144.321 19.1852C144.55 19.0219 144.757 18.8297 144.938 18.6047C145.123 18.3907 145.272 18.1476 145.391 17.8864ZM158.83 20.2591V6.52732H157.161V12.0599H157.081C156.95 11.7189 156.776 11.4359 156.562 11.2074C156.348 10.9788 156.101 10.7938 155.826 10.6487C155.55 10.5035 155.26 10.402 154.951 10.333C154.643 10.2677 154.334 10.2351 154.019 10.2351C153.366 10.2351 152.764 10.3548 152.216 10.5979C151.668 10.8409 151.193 11.182 150.794 11.6282C150.394 12.0744 150.082 12.6077 149.861 13.2354C149.64 13.863 149.527 14.5632 149.527 15.336C149.527 16.1196 149.64 16.8307 149.861 17.4656C150.082 18.1004 150.394 18.641 150.794 19.0945C151.193 19.5444 151.668 19.8926 152.216 20.1357C152.764 20.3788 153.366 20.4985 154.019 20.4985C155.561 20.4985 156.584 19.889 157.081 18.6737H157.161V20.2591H158.83ZM157.161 14.6285V16.3336C157.161 16.7654 157.088 17.1753 156.947 17.5599C156.805 17.9444 156.609 18.2782 156.366 18.5612C156.123 18.8442 155.836 19.0655 155.503 19.2287C155.169 19.392 154.813 19.4754 154.432 19.4754C154.015 19.4754 153.623 19.3992 153.257 19.2505C152.891 19.1018 152.571 18.8623 152.296 18.5358C152.02 18.2093 151.802 17.7848 151.639 17.2624C151.476 16.74 151.392 16.1123 151.392 15.3795C151.392 14.6358 151.476 14.0009 151.639 13.4748C151.802 12.9524 152.023 12.5243 152.306 12.1905C152.589 11.8568 152.912 11.6137 153.279 11.4649C153.645 11.3162 154.03 11.24 154.436 11.24C154.802 11.24 155.147 11.3162 155.477 11.4649C155.804 11.6137 156.09 11.8386 156.341 12.1325C156.587 12.4263 156.787 12.7819 156.939 13.2027C157.084 13.6163 157.161 14.0952 157.161 14.6285ZM163.223 15.7858H170.679V15.3722C170.679 14.4943 170.555 13.736 170.305 13.0975C170.058 12.4554 169.721 11.9257 169.296 11.5085C168.872 11.0913 168.378 10.7756 167.816 10.5652C167.254 10.3548 166.659 10.2496 166.031 10.2496C165.364 10.2496 164.75 10.3657 164.188 10.5942C163.626 10.8228 163.136 11.1566 162.715 11.5955C162.298 12.0345 161.971 12.5642 161.736 13.1846C161.5 13.805 161.384 14.5088 161.384 15.2924C161.384 15.9454 161.485 16.584 161.688 17.2043C161.892 17.8247 162.2 18.3798 162.61 18.8732C163.023 19.363 163.546 19.7548 164.181 20.0486C164.816 20.3425 165.563 20.4913 166.427 20.4913C167.265 20.4913 168.034 20.3425 168.741 20.0486C169.449 19.7548 170.062 19.3339 170.584 18.7825L169.957 18.1549C169.681 18.3907 169.423 18.6047 169.18 18.8006C168.937 18.9965 168.694 19.1598 168.444 19.2904C168.197 19.421 167.936 19.5226 167.667 19.5952C167.399 19.6677 167.101 19.704 166.775 19.704C166.408 19.704 166.02 19.6496 165.607 19.5371C165.193 19.4246 164.812 19.2251 164.46 18.9385C164.108 18.6519 163.814 18.2528 163.579 17.7413C163.343 17.2297 163.223 16.584 163.223 15.7858ZM168.97 15.0022H163.223C163.223 14.4798 163.277 13.9718 163.39 13.4821C163.502 12.9923 163.673 12.557 163.901 12.176C164.13 11.7951 164.42 11.494 164.776 11.2654C165.131 11.0368 165.549 10.9208 166.031 10.9208C166.96 10.9208 167.682 11.2835 168.197 12.0091C168.712 12.7383 168.97 13.7324 168.97 15.0022ZM60.7616 37.3866H59.4265C59.4519 37.9489 59.6006 38.4604 59.8691 38.9175C60.1376 39.3747 60.504 39.7629 60.9684 40.0857C61.4328 40.4086 61.977 40.6553 62.6046 40.8295C63.2322 41.0036 63.9179 41.0943 64.6653 41.0943C65.4236 41.0943 66.1056 41.0036 66.7151 40.8186C67.3246 40.6372 67.8434 40.3723 68.2751 40.035C68.7069 39.6939 69.0407 39.284 69.2765 38.7978C69.5123 38.3153 69.6284 37.7784 69.6284 37.1906C69.6284 36.378 69.4252 35.7177 69.0189 35.1989C68.6125 34.6837 68.1083 34.252 67.4988 33.9037C66.8893 33.5555 66.229 33.2652 65.5179 33.0294C64.8068 32.7936 64.1465 32.5469 63.537 32.2857C62.9275 32.0245 62.4232 31.7233 62.0169 31.3823C61.6105 31.0413 61.4074 30.5914 61.4074 30.0291C61.4074 29.7135 61.4763 29.4196 61.6142 29.1475C61.752 28.8718 61.9552 28.636 62.2237 28.4328C62.4921 28.2296 62.8223 28.0664 63.2141 27.943C63.6059 27.8197 64.0594 27.758 64.5673 27.758C65.4163 27.758 66.1383 27.9394 66.7333 28.2986C67.3282 28.6577 67.6765 29.2237 67.7817 29.9964H69.1168C69.037 29.5139 68.8629 29.0786 68.5872 28.6904C68.3114 28.3058 67.9668 27.9793 67.5459 27.7108C67.1251 27.4424 66.6534 27.2392 66.1238 27.1014C65.5941 26.9635 65.0426 26.8946 64.4658 26.8946C63.8635 26.8946 63.2903 26.9744 62.7497 27.1304C62.2055 27.2864 61.7303 27.5149 61.3167 27.8161C60.9031 28.1172 60.5766 28.4945 60.3371 28.9552C60.094 29.4124 59.9743 29.9348 59.9743 30.5261C59.9743 31.2989 60.1702 31.9193 60.5621 32.3909C60.9539 32.8625 61.4473 33.2543 62.0423 33.5663C62.6373 33.882 63.283 34.1468 63.976 34.3717C64.6689 34.593 65.3147 34.847 65.9097 35.1264C66.5047 35.4093 66.9981 35.7504 67.3899 36.1567C67.7817 36.563 67.9776 37.1036 67.9776 37.7856C67.9776 38.6346 67.6656 39.2586 67.0453 39.6504C66.4249 40.0422 65.5977 40.2381 64.5637 40.2381C63.7402 40.2381 63.0799 40.1293 62.5828 39.9152C62.0858 39.7012 61.7049 39.44 61.4437 39.1389C61.1824 38.8377 61.0047 38.5257 60.914 38.2065C60.8233 37.8872 60.7761 37.6079 60.7616 37.3866ZM82.105 35.9753C82.105 36.6537 81.9889 37.3067 81.7531 37.9271C81.5173 38.5475 81.1799 39.0953 80.7445 39.5669C80.3055 40.0386 79.7759 40.4123 79.1555 40.6844C78.5351 40.9601 77.8385 41.0979 77.0658 41.0979C76.2821 41.0979 75.571 40.9565 74.9361 40.6771C74.3012 40.3941 73.7643 40.0204 73.3289 39.5488C72.8899 39.0772 72.5525 38.533 72.3095 37.909C72.0664 37.2886 71.9467 36.6428 71.9467 35.9753C71.9467 35.2969 72.0664 34.6438 72.3095 34.0235C72.5525 33.4031 72.8899 32.8553 73.3289 32.3836C73.7679 31.912 74.3049 31.5383 74.9361 31.2553C75.571 30.9724 76.2785 30.8345 77.0658 30.8345C77.8385 30.8345 78.5351 30.976 79.1555 31.2553C79.7759 31.5383 80.3055 31.912 80.7445 32.3836C81.1835 32.8553 81.5209 33.3995 81.7531 34.0235C81.9889 34.6438 82.105 35.2932 82.105 35.9753ZM80.2439 35.9753C80.2439 35.0611 80.1459 34.3173 79.95 33.7477C79.7541 33.1782 79.5001 32.7392 79.1845 32.4235C78.8689 32.1079 78.5242 31.8975 78.1433 31.785C77.7623 31.6726 77.3995 31.6181 77.044 31.6181C76.6921 31.6181 76.3256 31.6726 75.9447 31.785C75.5638 31.8975 75.2155 32.1079 74.8962 32.4235C74.577 32.7392 74.3157 33.1782 74.1126 33.7477C73.9094 34.3173 73.8078 35.0574 73.8078 35.9753C73.8078 36.8786 73.9094 37.6151 74.1126 38.1811C74.3157 38.7507 74.577 39.1896 74.8962 39.5053C75.2155 39.8209 75.5674 40.0313 75.9447 40.1438C76.322 40.2563 76.6884 40.3107 77.044 40.3107C77.3959 40.3107 77.7623 40.2563 78.1433 40.1438C78.5242 40.0313 78.8689 39.8209 79.1845 39.5053C79.5001 39.1896 79.7541 38.7507 79.95 38.1811C80.1459 37.6115 80.2439 36.875 80.2439 35.9753ZM86.7162 40.8585V27.1267H85.0473V40.8585H86.7162ZM91.9151 31.0486H90.2462V37.4228C90.2462 37.6587 90.268 37.9815 90.3151 38.3951C90.3623 38.8087 90.4966 39.2114 90.7179 39.6105C90.9392 40.0096 91.2911 40.3542 91.7663 40.6517C92.2416 40.9492 92.9128 41.0943 93.7762 41.0943C94.1572 41.1088 94.5708 41.0326 95.0207 40.8694C95.4705 40.7061 95.9276 40.3941 96.3848 39.937L96.7004 39.6214H96.7802V40.8585H98.4491V31.0486H96.7802V37.129C96.7802 37.6405 96.7077 38.0759 96.5662 38.4423C96.421 38.8087 96.2324 39.1135 95.9966 39.3529C95.7608 39.596 95.485 39.7737 95.173 39.8935C94.8574 40.0096 94.5309 40.0712 94.1935 40.0712C93.6456 40.0712 93.2175 39.9624 92.9092 39.7483C92.6008 39.5343 92.3722 39.2803 92.2235 38.9937C92.0747 38.7071 91.984 38.4205 91.9586 38.1412C91.9332 37.8582 91.9187 37.655 91.9187 37.5244V31.0486H91.9151ZM102.371 31.8358H100.666V31.0522H102.371V28.0301H104.04V31.0522H106.412V31.8358H104.04V38.348C104.04 38.504 104.047 38.6854 104.058 38.8885C104.072 39.0917 104.109 39.2803 104.174 39.4581C104.239 39.6359 104.341 39.781 104.479 39.9007C104.617 40.0204 104.809 40.0785 105.059 40.0785C105.375 40.0785 105.636 39.9624 105.843 39.7266C106.053 39.4908 106.224 39.2368 106.354 38.9611L107.276 39.9043C106.634 40.5465 105.908 40.8657 105.099 40.8657C104.758 40.8657 104.424 40.8077 104.098 40.688C103.771 40.5719 103.481 40.3905 103.223 40.1474C102.966 39.9043 102.763 39.596 102.607 39.215C102.451 38.8341 102.371 38.3915 102.371 37.88V31.8358ZM111.296 31.0486H109.627V40.8585H111.296V31.0486ZM109.395 27.9503C109.395 28.2369 109.5 28.4872 109.71 28.694C109.921 28.9044 110.167 29.0096 110.454 29.0096C110.741 29.0096 110.991 28.9044 111.198 28.694C111.408 28.4836 111.513 28.2369 111.513 27.9503C111.513 27.6637 111.408 27.4134 111.198 27.2066C110.987 26.9961 110.741 26.8909 110.454 26.8909C110.167 26.8909 109.917 26.9961 109.71 27.2066C109.503 27.417 109.395 27.6637 109.395 27.9503ZM124.618 35.9753C124.618 36.6537 124.502 37.3067 124.266 37.9271C124.03 38.5475 123.693 39.0953 123.257 39.5669C122.818 40.0386 122.288 40.4123 121.668 40.6844C121.048 40.9564 120.351 41.0979 119.578 41.0979C118.795 41.0979 118.084 40.9565 117.449 40.6771C116.814 40.3941 116.277 40.0204 115.842 39.5488C115.403 39.0772 115.065 38.533 114.822 37.909C114.579 37.2886 114.459 36.6428 114.459 35.9753C114.459 35.2969 114.579 34.6438 114.822 34.0235C115.065 33.4031 115.403 32.8553 115.842 32.3836C116.281 31.912 116.817 31.5383 117.449 31.2553C118.084 30.9724 118.791 30.8345 119.578 30.8345C120.351 30.8345 121.048 30.976 121.668 31.2553C122.288 31.5383 122.818 31.912 123.257 32.3836C123.696 32.8553 124.034 33.3995 124.266 34.0235C124.498 34.6438 124.618 35.2932 124.618 35.9753ZM122.753 35.9753C122.753 35.0611 122.655 34.3173 122.459 33.7477C122.263 33.1782 122.009 32.7392 121.693 32.4235C121.378 32.1079 121.033 31.8975 120.652 31.785C120.271 31.6726 119.909 31.6181 119.553 31.6181C119.201 31.6181 118.835 31.6726 118.454 31.785C118.073 31.8975 117.724 32.1079 117.405 32.4235C117.086 32.7392 116.825 33.1782 116.622 33.7477C116.418 34.3173 116.317 35.0574 116.317 35.9753C116.317 36.8786 116.418 37.6151 116.622 38.1811C116.825 38.7507 117.086 39.1896 117.405 39.5053C117.724 39.8209 118.076 40.0313 118.454 40.1438C118.835 40.2563 119.197 40.3107 119.553 40.3107C119.905 40.3107 120.271 40.2563 120.652 40.1438C121.033 40.0313 121.378 39.8209 121.693 39.5053C122.009 39.1896 122.263 38.7507 122.459 38.1811C122.655 37.6115 122.753 36.875 122.753 35.9753ZM133.698 40.8585H135.367V34.5023C135.367 34.2665 135.349 33.9436 135.309 33.5301C135.269 33.1165 135.142 32.7138 134.928 32.3147C134.714 31.9156 134.37 31.571 133.898 31.2735C133.426 30.9796 132.759 30.8309 131.895 30.8309C131.514 30.8164 131.09 30.8925 130.622 31.0558C130.15 31.2191 129.686 31.5311 129.229 31.9882L128.913 32.3038H128.833V31.0486H127.164V40.8585H128.833V34.7962C128.833 34.2847 128.906 33.8493 129.047 33.4829C129.189 33.1165 129.388 32.8081 129.635 32.5614C129.882 32.3147 130.168 32.1297 130.488 32.0136C130.807 31.8975 131.137 31.8358 131.478 31.8358C132.026 31.8358 132.454 31.9447 132.752 32.1587C133.053 32.3727 133.27 32.6267 133.408 32.9133C133.546 33.1999 133.626 33.4902 133.655 33.7768C133.68 34.0634 133.695 34.2738 133.695 34.4044V40.8585H133.698ZM143.704 33.287H144.822C144.822 32.9351 144.731 32.6086 144.546 32.3074C144.365 32.0063 144.111 31.7487 143.792 31.5311C143.472 31.3134 143.099 31.1465 142.674 31.0195C142.25 30.8962 141.796 30.8345 141.31 30.8345C140.853 30.8345 140.425 30.8925 140.026 31.0123C139.627 31.1284 139.282 31.3061 138.984 31.542C138.691 31.7778 138.458 32.068 138.288 32.4163C138.117 32.7646 138.034 33.1636 138.034 33.6244C138.034 34.252 138.179 34.749 138.466 35.1155C138.752 35.4819 139.111 35.7758 139.543 35.9971C139.975 36.2184 140.443 36.3998 140.947 36.5376C141.451 36.6755 141.92 36.8242 142.351 36.9875C142.783 37.1507 143.142 37.3575 143.429 37.6042C143.715 37.8509 143.86 38.192 143.86 38.6237C143.86 38.8051 143.831 38.9974 143.773 39.1933C143.715 39.3892 143.607 39.5706 143.451 39.7338C143.295 39.8971 143.077 40.035 142.805 40.1474C142.533 40.2599 142.184 40.3143 141.764 40.3143C141.241 40.3143 140.798 40.2309 140.439 40.0676C140.08 39.9043 139.786 39.7084 139.558 39.4799C139.329 39.2513 139.166 39.0191 139.068 38.7833C138.97 38.5475 138.919 38.3516 138.919 38.1956H137.646C137.646 38.562 137.729 38.9175 137.9 39.2658C138.07 39.6141 138.328 39.9225 138.676 40.1982C139.024 40.4739 139.449 40.6916 139.95 40.8549C140.45 41.0181 141.038 41.1016 141.705 41.1016C142.91 41.1016 143.813 40.8367 144.423 40.307C145.032 39.7774 145.333 39.0808 145.333 38.2174C145.333 37.5897 145.185 37.0854 144.891 36.7081C144.597 36.3308 144.227 36.0261 143.781 35.7975C143.334 35.569 142.856 35.3839 142.34 35.2388C141.825 35.0937 141.343 34.945 140.9 34.789C140.454 34.633 140.087 34.4407 139.79 34.2194C139.496 33.9981 139.347 33.6824 139.347 33.2761C139.347 33.1056 139.38 32.9278 139.445 32.7355C139.511 32.5469 139.623 32.3691 139.779 32.2059C139.935 32.0426 140.145 31.9047 140.407 31.7923C140.668 31.6798 140.994 31.6254 141.386 31.6254C141.778 31.6254 142.119 31.6798 142.406 31.7923C142.692 31.9047 142.935 32.039 143.131 32.2059C143.327 32.3727 143.472 32.5505 143.563 32.7464C143.657 32.9351 143.704 33.1165 143.704 33.287Z" fill="#2E4396" />
        </g>
    </g>
    <defs>
        
    </defs>
</symbol><mask id="logo_mask0_108_760" style="mask-type:luminance" maskUnits="userSpaceOnUse" x="0" y="0" width="171" height="46">
            <path d="M170.679 0.668457H0V45.332H170.679V0.668457Z" fill="white" />
        </mask><clipPath id="logo_clip0_108_760">
            <rect width="171" height="46" fill="white" />
        </clipPath><symbol viewBox="0 0 18 17" fill="none" id="message">
    <path d="M14.4 0C15.3548 0 16.2705 0.377075 16.9456 1.04827C17.6207 1.71947 18 2.62981 18 3.57903V10.7371C18 11.6863 17.6207 12.5967 16.9456 13.2679C16.2705 13.9391 15.3548 14.3161 14.4 14.3161H10.1484L5.8626 16.8725C5.73353 16.9495 5.58709 16.993 5.4367 16.9992C5.2863 17.0054 5.13674 16.974 5.00171 16.9079C4.86668 16.8417 4.7505 16.743 4.66379 16.6206C4.57709 16.4983 4.52263 16.3563 4.5054 16.2076L4.5 16.1056V14.3161H3.6C2.67638 14.3161 1.78809 13.9632 1.11887 13.3304C0.449644 12.6975 0.050681 11.8331 0.0045001 10.916L0 10.7371V3.57903C0 2.62981 0.379285 1.71947 1.05442 1.04827C1.72955 0.377075 2.64522 0 3.6 0H14.4ZM10.8 8.05282H5.4C5.16131 8.05282 4.93239 8.14709 4.7636 8.31489C4.59482 8.48269 4.5 8.71027 4.5 8.94758C4.5 9.18488 4.59482 9.41247 4.7636 9.58027C4.93239 9.74807 5.16131 9.84234 5.4 9.84234H10.8C11.0387 9.84234 11.2676 9.74807 11.4364 9.58027C11.6052 9.41247 11.7 9.18488 11.7 8.94758C11.7 8.71027 11.6052 8.48269 11.4364 8.31489C11.2676 8.14709 11.0387 8.05282 10.8 8.05282ZM12.6 4.47379H5.4C5.16131 4.47379 4.93239 4.56806 4.7636 4.73586C4.59482 4.90366 4.5 5.13124 4.5 5.36855C4.5 5.60585 4.59482 5.83344 4.7636 6.00124C4.93239 6.16904 5.16131 6.26331 5.4 6.26331H12.6C12.8387 6.26331 13.0676 6.16904 13.2364 6.00124C13.4052 5.83344 13.5 5.60585 13.5 5.36855C13.5 5.13124 13.4052 4.90366 13.2364 4.73586C13.0676 4.56806 12.8387 4.47379 12.6 4.47379Z" fill="#6F96D1" />
</symbol><symbol viewBox="0 0 19 18" fill="none" id="money">
<path d="M10.5556 12.7059C10.5556 12.9867 10.4443 13.256 10.2464 13.4546C10.0484 13.6532 9.77995 13.7647 9.5 13.7647C9.22005 13.7647 8.95157 13.6532 8.75361 13.4546C8.55565 13.256 8.44444 12.9867 8.44444 12.7059C8.44444 12.4251 8.55565 12.1557 8.75361 11.9572C8.95157 11.7586 9.22005 11.6471 9.5 11.6471C9.77995 11.6471 10.0484 11.7586 10.2464 11.9572C10.4443 12.1557 10.5556 12.4251 10.5556 12.7059Z" fill="#6F96D1" />
<path d="M11.6235 0L14.5006 3.75858L16.3979 3.15548L18.1296 7.87816H19V18H0V7.87816H0.461429V7.86973L1.04771 7.87479L11.6235 0ZM7.14491 7.87816H16.2179L15.2796 5.31987L13.9026 5.73065L7.14491 7.87816ZM5.73529 6.54292L12.7119 4.32709L11.2607 2.42924L5.73529 6.54292ZM3.61905 9.56514H1.80952V11.2521C2.28944 11.2521 2.7497 11.0744 3.08905 10.758C3.4284 10.4416 3.61905 10.0125 3.61905 9.56514ZM12.6667 12.9391C12.6667 12.5514 12.5848 12.1675 12.4256 11.8093C12.2665 11.4511 12.0332 11.1257 11.7392 10.8516C11.4451 10.5774 11.096 10.36 10.7118 10.2116C10.3276 10.0632 9.91585 9.98688 9.5 9.98688C9.08415 9.98688 8.67237 10.0632 8.28817 10.2116C7.90397 10.36 7.55488 10.5774 7.26083 10.8516C6.96678 11.1257 6.73352 11.4511 6.57438 11.8093C6.41524 12.1675 6.33333 12.5514 6.33333 12.9391C6.33333 13.7221 6.66696 14.473 7.26083 15.0266C7.85469 15.5802 8.66015 15.8913 9.5 15.8913C10.3399 15.8913 11.1453 15.5802 11.7392 15.0266C12.333 14.473 12.6667 13.7221 12.6667 12.9391ZM17.1905 16.313V14.6261C16.7106 14.6261 16.2503 14.8038 15.911 15.1202C15.5716 15.4365 15.381 15.8656 15.381 16.313H17.1905ZM15.381 9.56514C15.381 10.0125 15.5716 10.4416 15.911 10.758C16.2503 11.0744 16.7106 11.2521 17.1905 11.2521V9.56514H15.381ZM1.80952 16.313H3.61905C3.61905 15.8656 3.4284 15.4365 3.08905 15.1202C2.7497 14.8038 2.28944 14.6261 1.80952 14.6261V16.313Z" fill="#6F96D1" />
</symbol><symbol viewBox="0 0 19 19" fill="none" id="question">
<path d="M9.45249 15.2C9.78499 15.2 10.0662 15.085 10.2961 14.8551C10.526 14.6252 10.6406 14.3444 10.64 14.0125C10.6394 13.6806 10.5247 13.3994 10.2961 13.1689C10.0675 12.9384 9.78626 12.8237 9.45249 12.825C9.11873 12.8263 8.83784 12.9412 8.60985 13.1698C8.38185 13.3985 8.2669 13.6794 8.265 14.0125C8.2631 14.3456 8.37805 14.6268 8.60985 14.8561C8.84164 15.0854 9.12253 15.2 9.45249 15.2ZM8.5975 11.5425H10.355C10.355 11.02 10.4145 10.6083 10.5336 10.3075C10.6527 10.0067 10.989 9.59499 11.5425 9.07249C11.9542 8.66083 12.2787 8.26879 12.5162 7.89639C12.7537 7.524 12.8725 7.07686 12.8725 6.555C12.8725 5.66833 12.5479 4.9875 11.8987 4.5125C11.2496 4.0375 10.4817 3.8 9.595 3.8C8.6925 3.8 7.96036 4.0375 7.3986 4.5125C6.83683 4.9875 6.4448 5.5575 6.2225 6.2225L7.79 6.84C7.86916 6.555 8.04745 6.24625 8.32485 5.91375C8.60224 5.58125 9.02563 5.415 9.595 5.415C10.1017 5.415 10.4817 5.5537 10.735 5.8311C10.9883 6.1085 11.115 6.41313 11.115 6.745C11.115 7.06166 11.02 7.3587 10.83 7.63609C10.64 7.91349 10.4025 8.17063 10.1175 8.40749C9.42083 9.02499 8.99333 9.49208 8.835 9.80874C8.67666 10.1254 8.5975 10.7033 8.5975 11.5425ZM9.49999 19C8.18583 19 6.95083 18.7508 5.795 18.2523C4.63917 17.7539 3.63375 17.0769 2.77875 16.2212C1.92375 15.3656 1.24703 14.3602 0.748601 13.205C0.250168 12.0498 0.000634535 10.8148 1.20253e-06 9.49999C-0.00063213 8.18519 0.248901 6.9502 0.748601 5.795C1.2483 4.6398 1.92502 3.63438 2.77875 2.77875C3.63248 1.92312 4.6379 1.2464 5.795 0.748604C6.9521 0.250805 8.1871 0.00127146 9.49999 4.79797e-06C10.8129 -0.00126187 12.0479 0.248271 13.205 0.748604C14.3621 1.24894 15.3675 1.92565 16.2212 2.77875C17.075 3.63185 17.752 4.63727 18.2523 5.795C18.7527 6.95273 19.0019 8.18773 19 9.49999C18.9981 10.8123 18.7486 12.0473 18.2514 13.205C17.7542 14.3627 17.0775 15.3681 16.2212 16.2212C15.365 17.0743 14.3596 17.7514 13.205 18.2523C12.0504 18.7533 10.8154 19.0025 9.49999 19Z" fill="#6F96D1" />
</symbol><symbol viewBox="0 0 16 18" fill="none" id="registration">
    <path fill-rule="evenodd" clip-rule="evenodd" d="M1.04178 1.0548C-1.05964e-07 2.1087 0 3.8061 0 7.2V10.8C0 14.1939 -1.05964e-07 15.8913 1.04178 16.9452C2.08356 17.9991 3.75911 18 7.11111 18H8.88889C12.2409 18 13.9173 18 14.9582 16.9452C15.9831 15.9084 16 14.2488 16 10.962L13.4951 13.4982C13.2551 13.7412 13.0587 13.9401 12.8373 14.1156C12.5777 14.3215 12.2963 14.4975 11.9982 14.6403C11.7254 14.7646 11.4452 14.8713 11.1591 14.9598L9.104 15.6537C8.77776 15.7639 8.42767 15.7798 8.09296 15.6999C7.75826 15.6199 7.45216 15.4471 7.20899 15.2009C6.96581 14.9547 6.79517 14.6448 6.71618 14.3059C6.63719 13.967 6.65298 13.6125 6.76178 13.2822L7.00533 12.5442L7.42756 11.2608L7.44622 11.2014C7.55378 10.8756 7.64178 10.6092 7.76267 10.3518C7.90489 10.0494 8.07763 9.7665 8.28089 9.5031C8.45422 9.2781 8.65067 9.0801 8.89067 8.8371L12.4516 5.2308L13.44 4.23L13.5529 4.1157C13.8549 3.80894 14.2139 3.56569 14.6092 3.39996C15.0045 3.23422 15.4282 3.14927 15.856 3.15C15.7218 2.223 15.4613 1.5633 14.9582 1.0548C13.9173 -1.07288e-07 12.2409 0 8.88889 0H7.11111C3.75911 0 2.08267 -1.07288e-07 1.04178 1.0548ZM3.77778 6.3C3.77778 6.12098 3.84802 5.94929 3.97304 5.8227C4.09806 5.69612 4.26763 5.625 4.44444 5.625H10.2222C10.399 5.625 10.5686 5.69612 10.6936 5.8227C10.8187 5.94929 10.8889 6.12098 10.8889 6.3C10.8889 6.47902 10.8187 6.65071 10.6936 6.7773C10.5686 6.90388 10.399 6.975 10.2222 6.975H4.44444C4.26763 6.975 4.09806 6.90388 3.97304 6.7773C3.84802 6.65071 3.77778 6.47902 3.77778 6.3ZM3.77778 9.9C3.77778 9.72098 3.84802 9.54929 3.97304 9.4227C4.09806 9.29612 4.26763 9.225 4.44444 9.225H6.66667C6.84348 9.225 7.01305 9.29612 7.13807 9.4227C7.2631 9.54929 7.33333 9.72098 7.33333 9.9C7.33333 10.079 7.2631 10.2507 7.13807 10.3773C7.01305 10.5039 6.84348 10.575 6.66667 10.575H4.44444C4.26763 10.575 4.09806 10.5039 3.97304 10.3773C3.84802 10.2507 3.77778 10.079 3.77778 9.9ZM3.77778 13.5C3.77778 13.321 3.84802 13.1493 3.97304 13.0227C4.09806 12.8961 4.26763 12.825 4.44444 12.825H5.77778C5.95459 12.825 6.12416 12.8961 6.24918 13.0227C6.37421 13.1493 6.44444 13.321 6.44444 13.5C6.44444 13.679 6.37421 13.8507 6.24918 13.9773C6.12416 14.1039 5.95459 14.175 5.77778 14.175H4.44444C4.26763 14.175 4.09806 14.1039 3.97304 13.9773C3.84802 13.8507 3.77778 13.679 3.77778 13.5Z" fill="#6F96D1" />
</symbol><symbol viewBox="0 0 28 28" fill="none" id="rus-flag">
<g clip-path="url(#rus-flag_clip0_5_567)">
<path d="M13.9563 0.875C8.26877 0.875 3.41252 4.55 1.61877 9.625H26.3813C24.5438 4.55 19.6875 0.875 13.9563 0.875Z" fill="#F9F9F9" />
<path d="M13.9563 27.125C19.6875 27.125 24.5438 23.45 26.3375 18.375H1.61877C3.41252 23.4937 8.26877 27.125 13.9563 27.125Z" fill="#ED4C5C" />
<path d="M1.61875 9.625C1.1375 10.9812 0.875 12.4688 0.875 14C0.875 15.5312 1.1375 17.0188 1.61875 18.375H26.3812C26.8625 17.0188 27.125 15.5312 27.125 14C27.125 12.4688 26.8625 10.9812 26.3812 9.625H1.61875Z" fill="#428BC1" />
</g>
<defs>

</defs>
</symbol><clipPath id="rus-flag_clip0_5_567">
<rect width="28" height="28" fill="white" />
</clipPath><symbol viewBox="0 0 16 15" fill="none" id="telegram">
<path fill-rule="evenodd" clip-rule="evenodd" d="M13.6724 0.706779C13.8496 0.632206 14.0435 0.606487 14.234 0.632297C14.4245 0.658107 14.6046 0.734503 14.7555 0.853534C14.9065 0.972565 15.0228 1.12988 15.0923 1.3091C15.1618 1.48833 15.182 1.68291 15.1508 1.87259L13.5247 11.7361C13.367 12.6875 12.323 13.2332 11.4505 12.7592C10.7206 12.3627 9.63652 11.7519 8.66143 11.1145C8.17388 10.7954 6.68041 9.77372 6.86396 9.0467C7.02169 8.42508 9.53113 6.08916 10.9651 4.70036C11.5279 4.15474 11.2712 3.83999 10.6066 4.34187C8.95611 5.58799 6.30614 7.48297 5.42999 8.0164C4.65709 8.48674 4.25414 8.56704 3.77233 8.48674C2.89331 8.34048 2.07811 8.11391 1.41275 7.83787C0.513653 7.46504 0.557388 6.22897 1.41203 5.86904L13.6724 0.706779Z" fill="#6F96D1" />
</symbol><symbol viewBox="0 0 16 16" fill="none" id="whats-app">
<path d="M8.00001 0C12.4184 0 16 3.5816 16 7.99999C16 12.4184 12.4184 16 8.00001 16C6.58621 16.0024 5.19727 15.6283 3.97601 14.916L0.00321236 16L1.08481 12.0256C0.371979 10.8039 -0.0024653 9.41441 1.22149e-05 7.99999C1.22149e-05 3.5816 3.58161 0 8.00001 0ZM5.27361 4.24L5.11361 4.2464C5.01016 4.25352 4.90909 4.2807 4.81601 4.3264C4.72927 4.37561 4.65006 4.43703 4.58081 4.5088C4.48481 4.5992 4.43041 4.6776 4.37201 4.7536C4.07611 5.13832 3.91679 5.61065 3.91921 6.096C3.92081 6.488 4.02321 6.8696 4.18321 7.22639C4.51041 7.94799 5.04881 8.71199 5.75921 9.41999C5.93041 9.59039 6.09841 9.76159 6.27921 9.92079C7.16195 10.6979 8.21383 11.2584 9.35121 11.5576L9.80561 11.6272C9.95361 11.6352 10.1016 11.624 10.2504 11.6168C10.4834 11.6045 10.7108 11.5414 10.9168 11.432C11.0215 11.3779 11.1237 11.3191 11.2232 11.256C11.2232 11.256 11.2571 11.2331 11.3232 11.184C11.4312 11.104 11.4976 11.0472 11.5872 10.9536C11.6544 10.8843 11.7104 10.8037 11.7552 10.712C11.8176 10.5816 11.88 10.3328 11.9056 10.1256C11.9248 9.96719 11.9192 9.88079 11.9168 9.82719C11.9136 9.74159 11.8424 9.65279 11.7648 9.61519L11.2992 9.40639C11.2992 9.40639 10.6032 9.10319 10.1776 8.90959C10.1331 8.8902 10.0853 8.87908 10.0368 8.87679C9.98206 8.87107 9.92673 8.87718 9.87456 8.8947C9.82238 8.91223 9.77458 8.94077 9.73441 8.97839C9.7304 8.97679 9.67681 9.02239 9.09841 9.72319C9.06521 9.7678 9.01948 9.80152 8.96705 9.82004C8.91462 9.83856 8.85786 9.84105 8.80401 9.82719C8.75187 9.8133 8.7008 9.79565 8.65121 9.77439C8.55201 9.73279 8.51761 9.71679 8.44961 9.68799C7.99031 9.48792 7.56516 9.21718 7.18961 8.88559C7.08881 8.79759 6.99521 8.70159 6.89921 8.60879C6.5845 8.30736 6.31021 7.96638 6.08321 7.59439L6.03601 7.51839C6.00262 7.46703 5.97524 7.412 5.95441 7.35439C5.92401 7.23679 6.00321 7.1424 6.00321 7.1424C6.00321 7.1424 6.19761 6.92959 6.28801 6.81439C6.37601 6.70239 6.45041 6.5936 6.49841 6.516C6.59281 6.364 6.62241 6.208 6.57281 6.0872C6.34881 5.54 6.11734 4.99573 5.87841 4.4544C5.83121 4.3472 5.69121 4.2704 5.56401 4.2552C5.52081 4.24986 5.47761 4.2456 5.43441 4.2424C5.32699 4.23624 5.21928 4.2373 5.11201 4.2456L5.27361 4.24Z" fill="#6F96D1" />
</symbol></defs></svg>